<?xml version="1.0" standalone="no"?>
<!DOCTYPE svg PUBLIC "-//W3C//DTD SVG 1.1//EN" "http://www.w3.org/Graphics/SVG/1.1/DTD/svg11.dtd" >
<svg xmlns="http://www.w3.org/2000/svg">
<metadata>Generated by IcoMoon</metadata>
<defs>
<font id="icomoon" horiz-adv-x="1024">
<font-face units-per-em="1024" ascent="777" descent="-247" />
<missing-glyph horiz-adv-x="1024" />
<glyph unicode="&#x20;" horiz-adv-x="268" d="" />
<glyph unicode="&#xe603;" glyph-name="cellphone-nopad" d="M708.923 705h-393.846c-49.231 0-88.616-39.384-88.616-88.616v-846.769c0-49.231 39.384-88.616 88.616-88.616h393.846c49.231 0 88.616 39.384 88.616 88.616v846.769c0 49.231-39.384 88.616-88.616 88.616zM772.923-230.384c0-36.923-29.539-64-64-64h-393.846c-36.923 0-64 29.539-64 64v846.769c0 36.923 29.539 64 64 64h393.846c36.923 0 64-29.539 64-64v-846.769zM583.385 601.616h-140.308c-7.385 0-12.308-4.923-12.308-12.308s4.923-12.308 12.308-12.308h140.308c7.385 0 12.308 4.923 12.308 12.308s-7.385 12.308-12.308 12.308z" />
<glyph unicode="&#xe604;" glyph-name="chat-bubble-nopad" d="M0.038-11.254h153.854l15.916-270.57 220.17 270.57h633.983v679.078h-1023.923v-679.078zM26.564 641.298h970.87v-628.678h-618.067l-185.685-228.128-13.263 228.128h-153.854v628.678zM580.968 190.347c7.958 0 13.263 5.305 13.263 13.263s-5.305 13.263-13.263 13.263h-397.897c-7.958 0-13.263-5.305-13.263-13.263s5.305-13.263 13.263-13.263h397.897zM183.070 322.98h673.773c7.958 0 13.263 5.305 13.263 13.263s-5.305 13.263-13.263 13.263h-673.773c-7.958 0-13.263-5.305-13.263-13.263s5.305-13.263 13.263-13.263zM183.070 455.612h673.773c7.958 0 13.263 5.305 13.263 13.263s-5.305 13.263-13.263 13.263h-673.773c-7.958 0-13.263-5.305-13.263-13.263s5.305-13.263 13.263-13.263z" />
<glyph unicode="&#xe60f;" glyph-name="globe-nopad" d="M950.226 366.432h-878.9c-9.793 0-19.586 7.345-19.586 19.586s7.345 19.586 19.586 19.586h878.9c9.793 0 19.586-7.345 19.586-19.586s-9.793-19.586-19.586-19.586zM1001.638 133.854h-979.276c-9.793 0-19.586 7.345-19.586 19.586s7.345 19.586 19.586 19.586h979.276c9.793 0 19.586-7.345 19.586-19.586s-9.793-19.586-19.586-19.586zM512-345.991c-281.542 0-511.672 230.13-511.672 511.672s230.13 511.672 511.672 511.672 511.672-230.13 511.672-511.672c0-281.542-230.13-511.672-511.672-511.672zM512 640.629c-261.956 0-474.949-212.993-474.949-474.949s212.993-474.949 474.949-474.949 474.949 212.993 474.949 474.949c0 261.956-212.993 474.949-474.949 474.949zM512-345.991c-4.896 0-9.793 2.448-12.241 4.896-9.793 9.793-252.164 230.13-252.164 506.775s242.371 496.983 252.164 506.775c7.345 7.345 17.137 7.345 24.482 0 9.793-9.793 252.164-230.13 252.164-506.775s-242.371-496.983-252.164-506.775c-2.448-2.448-7.345-4.896-12.241-4.896zM512 633.284c-48.964-48.964-227.682-242.371-227.682-467.604s178.718-418.64 227.682-467.604c48.964 48.964 227.682 242.371 227.682 467.604s-178.718 418.64-227.682 467.604zM937.985-98.724h-849.522c-9.793 0-19.586 7.345-19.586 19.586s7.345 19.586 19.586 19.586h849.522c9.793 0 19.586-7.345 19.586-19.586s-9.793-19.586-19.586-19.586zM512-341.095c-9.793 0-19.586 7.345-19.586 19.586v976.828c0 9.793 7.345 19.586 19.586 19.586s19.586-7.345 19.586-19.586v-976.828c0-12.241-9.793-19.586-19.586-19.586z" />
<glyph unicode="&#xe610;" glyph-name="handset-nopad" d="M1008.278-55.688c-73.377 45.861-122.295 79.492-155.926 100.893-15.287 12.229-27.516 18.344-39.746 24.459-9.172 6.115-21.402 9.172-30.574 9.172-21.402 0-36.688-15.287-36.688-15.287s-61.147-70.319-79.492-91.721c-12.229-12.229-30.574-12.229-51.975-3.057-113.123 58.090-214.016 149.811-302.68 275.163-3.057 6.115-6.115 9.172-9.172 12.229-6.115 9.172-6.115 21.402-6.115 24.459 6.115 9.172 39.746 61.147 88.664 100.893 12.229 6.115 15.287 21.402 15.287 27.516 3.057 12.229 0 24.459-6.115 33.631-85.606 119.237-155.926 192.614-158.983 192.614 0 0-15.287 12.229-33.631 12.229-12.229 0-24.459-3.057-33.631-12.229-143.696-122.295-162.041-220.131-162.041-220.131 0-6.115-12.229-48.918 0-73.377 177.327-525.868 697.080-648.162 700.138-648.162 0 0 30.574-9.172 61.147-9.172 18.344 0 33.631 3.057 42.803 9.172 125.352 61.147 201.786 186.5 204.844 192.614v3.057c12.229 9.172 15.287 36.688-6.115 55.033zM992.991-101.548c-9.172-15.287-82.549-125.352-192.614-180.385-3.057-3.057-12.229-6.115-27.516-6.115-24.459 0-51.975 9.172-55.033 9.172-6.115 0-507.523 119.237-678.736 629.818-6.115 12.229-3.057 39.746 0 55.033 0 0 18.344 91.721 152.868 204.844 3.057 3.057 9.172 6.115 12.229 6.115 6.115 0 12.229-3.057 12.229-3.057v0c6.115-6.115 70.319-76.434 152.868-189.557 3.057-6.115 0-15.287-3.057-18.344-61.147-48.918-97.836-107.008-97.836-110.065l-3.057-3.057c0-3.057-9.172-33.631 9.172-55.033 0-3.057 3.057-6.115 6.115-9.172 91.721-128.41 195.672-226.245 314.909-284.335 12.229-6.115 27.516-9.172 39.746-9.172 18.344 0 33.631 6.115 45.861 18.344 21.402 21.402 79.492 88.664 79.492 91.721 0 0 15.287 9.172 30.574 0 9.172-6.115 21.402-15.287 36.688-24.459 33.631-21.402 82.549-55.033 152.868-100.893 15.287-6.115 15.287-18.344 12.229-21.402z" />
<glyph unicode="&#xe611;" glyph-name="headphones-nopad" d="M957.371 251c-13.079 232.801-206.644 418.519-442.061 418.519s-428.982-185.718-442.061-418.519c-41.852-5.231-73.241-41.852-73.241-83.704v-149.097c0-41.852 31.389-75.857 70.625-83.704 0 0 0 0 0 0 0-117.709 94.167-211.875 209.26-214.491 0 0 0 0 0 0 0-31.389 26.157-57.546 57.546-57.546h94.167c31.389 0 57.546 26.157 57.546 57.546s-26.157 57.546-57.546 57.546h-94.167c-23.542 0-41.852-13.079-52.315-31.389 0 0-2.616 0-2.616 0-102.014 0-188.334 83.704-188.334 188.334 0 0 0 0 0 0 39.236 5.231 70.625 41.852 70.625 83.704v149.097c0 41.852-31.389 75.857-70.625 83.704 13.079 219.723 193.565 392.362 415.903 392.362s402.825-175.255 415.903-392.362c-39.236-7.847-70.625-41.852-70.625-83.704v-149.097c0-47.083 39.236-83.704 83.704-83.704s83.704 39.236 83.704 83.704v149.097c7.847 41.852-23.542 75.857-65.394 83.704zM340.056-248.607h94.167c18.31 0 31.389-13.079 31.389-31.389s-13.079-31.389-31.389-31.389h-94.167c-18.31 0-31.389 13.079-31.389 31.389s13.079 31.389 31.389 31.389zM143.875 167.296v-149.097c0-31.389-26.157-57.546-57.546-57.546s-57.546 26.157-57.546 57.546v149.097c0 28.773 20.926 52.315 44.468 57.546 0-5.231 5.231-10.463 13.079-10.463s10.463 2.616 10.463 7.847c26.157-5.231 47.083-28.773 47.083-54.931zM1004.455 18.199c0-31.389-26.157-57.546-57.546-57.546s-57.546 26.157-57.546 57.546v149.097c0 28.773 20.926 52.315 44.468 57.546 0-5.231 5.231-10.463 13.079-10.463s13.079 5.231 13.079 10.463c26.157-5.231 44.468-28.773 44.468-57.546v-149.097z" />
<glyph unicode="&#xe615;" glyph-name="laptop-nopad" d="M1010.115-24.678h-99.39v459.966c0 18.491-18.491 34.671-41.605 34.671h-716.529c-23.114 0-41.605-16.18-41.605-34.671v-459.966h-99.39c-6.934 0-11.557-4.623-11.557-11.557v-60.096c0 0 0 0 0 0 0-23.114 20.802-41.605 43.916-41.605h936.111c23.114 0 41.605 18.491 43.916 41.605 0 0 0 0 0 0v60.096c-2.311 6.934-6.934 11.557-13.868 11.557zM134.1 435.288c0 4.623 6.934 11.557 18.491 11.557h718.841c11.557 0 18.491-6.934 18.491-11.557v-459.966h-755.823v459.966zM977.756-117.133h-933.8c-11.557 0-20.802 9.246-20.802 20.802v46.228h977.716v-46.228c-2.311-11.557-11.557-20.802-23.114-20.802zM536.281 345.144c0-14.042-11.384-25.425-25.425-25.425s-25.425 11.384-25.425 25.425c0 14.042 11.384 25.425 25.425 25.425s25.425-11.384 25.425-25.425z" />
<glyph unicode="&#xe624;" glyph-name="tv-nopad" d="M804.361-186.379h-587.298c-7.66 0-12.767-5.107-12.767-12.767s5.107-12.767 12.767-12.767h589.852c7.66 0 12.767 5.107 12.767 12.767s-7.66 12.767-15.321 12.767zM1008.639 543.914h-995.853c-7.66 0-12.767-5.107-12.767-12.767v-635.814c0-7.66 5.107-12.767 12.767-12.767h998.407c7.66 0 12.767 5.107 12.767 12.767v635.814c-2.553 7.66-7.66 12.767-15.321 12.767zM995.871-89.347h-970.319v607.726h970.319v-607.726z" />
<glyph unicode="&#xe625;" glyph-name="upload-nopad" d="M523.703 517.079c0 0 0 0 0 0l-11.703 8.777-11.703-8.777c0 0 0 0 0 0l-234.053-234.053c-5.851-5.851-5.851-14.628 0-20.48s14.628-5.851 20.48 0l210.648 210.648v-646.571c0-8.777 5.851-14.628 14.628-14.628s14.628 5.851 14.628 14.628v643.645l210.648-210.648c2.926-2.926 5.851-2.926 11.703-2.926s8.777 0 11.703 2.926c5.851 5.851 5.851 14.628 0 20.48l-236.979 236.979zM512 677.991c-280.863 0-511.991-228.202-511.991-511.991s231.127-511.991 511.991-511.991 511.991 231.127 511.991 511.991-231.127 511.991-511.991 511.991zM512-316.734c-266.235 0-482.734 216.499-482.734 482.734s216.499 482.734 482.734 482.734 482.734-216.499 482.734-482.734c0-266.235-216.499-482.734-482.734-482.734z" />
<glyph unicode="&#xe62b;" glyph-name="download-few-times-a-week-nopad" d="M509.563-123.054c-4.899 0-9.798 2.45-14.698 7.349l-205.767 252.31c-7.349 7.349-4.899 19.597 2.45 26.946s19.597 4.899 26.946-2.45l191.070-235.163 191.070 235.163c7.349 7.349 17.147 9.798 26.946 2.45 7.349-7.349 9.798-17.147 2.45-26.946l-205.767-252.31c-4.899-4.899-9.798-7.349-14.698-7.349zM509.563-123.054c-9.798 0-19.597 7.349-19.597 19.597v729.984c0 9.798 7.349 19.597 19.597 19.597s19.597-7.349 19.597-19.597v-729.984c0-12.248-9.798-19.597-19.597-19.597zM999.485-314.124h-979.845c-9.798 0-19.597 7.349-19.597 19.597v173.922c0 9.798 7.349 19.597 19.597 19.597s19.597-7.349 19.597-19.597v-154.326h945.55v154.326c0 9.798 7.349 19.597 19.597 19.597s19.597-7.349 19.597-19.597v-173.922c-4.899-12.248-14.698-19.597-24.496-19.597z" />
<glyph unicode="&#xe646;" glyph-name="memory-card-nopad" d="M901.841-345.991h-779.681v761.489l272.888 262.493h506.793v-1023.982zM148.149-320.001h727.703v972.003h-470.408l-257.295-246.899v-725.104zM740.707-179.659h-457.413v324.867h457.413v-324.867zM309.283-153.669h405.434v272.888h-405.434v-272.888zM296.288-36.717h431.424v-25.989h-431.424v25.989zM621.155 132.214h25.989v-181.926h-25.989v181.926zM530.193 132.214h25.989v-181.926h-25.989v181.926z" />
<glyph unicode="&#xe65f;" glyph-name="edit-nopad" d="M771.435 677.951l-657.234-657.234-114.151-366.667 366.667 114.151 657.234 657.234-252.516 252.516zM975.523 421.975l-103.774-103.774-204.088 204.088 103.774 103.774 204.088-204.088zM294.075-55.384l-134.906 69.183 484.278 484.278 204.088-204.088-484.278-484.278-69.183 134.906zM141.874-13.875l127.988-65.723 65.723-127.988-280.189-86.478 86.478 280.189z" />
<glyph unicode="&#xe663;" glyph-name="fiberoptics-nopad" d="M895.483 484.745c-55.78 0-101.6-45.82-101.6-101.6 0-23.905 9.961-47.812 23.905-63.749-121.521-117.538-191.247-292.846-191.247-482.101v-5.976h-105.584v643.465c51.796 5.976 91.639 47.812 91.639 99.608 0 57.772-45.82 103.591-101.6 103.591s-101.6-45.82-101.6-101.6c0-51.796 39.842-95.624 91.639-99.608v-643.465h-105.584v5.976c0 189.255-69.726 364.564-191.247 482.101 13.945 17.929 23.905 39.842 23.905 63.749 0 55.78-45.82 101.6-101.6 101.6s-101.6-47.812-101.6-103.591 45.82-101.6 101.6-101.6c23.905 0 45.82 7.968 63.749 23.905 117.538-113.553 185.27-282.885 185.27-468.155v-5.976h-113.553v-177.302h19.922v157.38h460.188v-157.38h19.922v177.302h-113.553v5.976c0 185.27 67.734 354.602 185.27 468.155 17.929-13.945 39.842-23.905 63.749-23.905 55.78 0 101.6 45.82 101.6 101.599s-47.812 101.6-103.591 101.6zM429.319 576.384c0 43.828 35.859 81.679 81.679 81.679s81.679-35.859 81.679-81.679-35.859-81.679-81.679-81.679-81.679 35.859-81.679 81.679zM126.511 301.468c-45.82 0-81.679 35.859-81.679 81.679s35.859 81.679 81.679 81.679 81.679-35.859 81.679-81.679-37.851-81.679-81.679-81.679zM895.483 301.468c-45.82 0-81.679 35.859-81.679 81.679s35.859 81.679 81.679 81.679 81.679-35.859 81.679-81.679-35.859-81.679-81.679-81.679z" />
<glyph unicode="&#xe670;" glyph-name="learnmoreaboutmcAfee-nopad" d="M457.702 123.378c9.881 7.411 14.823 19.764 14.823 32.115 0 22.234-17.293 41.997-41.997 41.997-22.234 0-41.997-17.293-41.997-41.997 0-12.353 4.941-24.704 14.823-32.115l-17.293-41.997c0-2.47 0-4.941 0-7.411 2.47-2.47 4.941-2.47 7.411-2.47h74.112c2.47 0 4.941 2.47 7.411 2.47 2.47 2.47 2.47 4.941 0 7.411l-17.293 41.997zM806.032 66.559c-12.353 0-24.704-2.47-39.527-4.941 76.583 219.868 71.642 449.617 71.642 474.321s-19.764 41.997-44.468 41.997c-224.809 0-333.507 83.995-338.448 88.935-17.293 14.823-39.527 14.823-56.819 0 0 0-111.169-88.935-338.448-88.935-24.704 0-41.997-17.293-44.468-41.997 0-29.645-17.293-701.6 395.267-847.355 4.941-2.47 9.881-2.47 14.823-2.47s9.881 0 14.823 2.47c61.761 22.234 118.58 56.819 167.988 106.229 27.174-81.524 103.758-140.814 195.164-140.814 113.639 0 205.045 91.406 205.045 205.045s-88.935 207.515-202.575 207.515zM603.457-175.544c-46.938-49.408-103.758-86.465-165.518-108.699-4.941-2.47-7.411-2.47-12.353 0-395.267 138.344-380.445 793.007-377.975 822.651 0 9.881 7.411 17.293 19.764 17.293 239.632 0 353.27 93.876 353.27 93.876 7.411 4.941 17.293 4.941 24.704 0 4.941-4.941 118.58-93.876 353.27-93.876 9.881 0 17.293-7.411 19.764-17.293 0-9.881 7.411-256.924-74.112-479.262 0-2.47 0-2.47 0-4.941-81.524-27.174-138.344-103.758-138.344-192.693-4.941-12.353-2.47-24.704-2.47-37.057 0 0 0 0 0 0zM806.032-318.827c-98.817 0-180.341 81.524-180.341 180.341s81.524 180.341 180.341 180.341c98.817 0 180.341-81.524 180.341-180.341s-79.053-180.341-180.341-180.341zM823.325-222.481c0-4.941-2.47-9.881-4.941-14.823-4.941-4.941-7.411-4.941-14.823-4.941-4.941 0-9.881 2.47-14.823 4.941-4.941 4.941-4.941 7.411-4.941 14.823s2.47 9.881 4.941 14.823c4.941 4.941 7.411 4.941 14.823 4.941 4.941 0 9.881-2.47 14.823-4.941 2.47-4.941 4.941-9.881 4.941-14.823zM820.855-49.551c0-4.941-2.47-19.764-4.941-46.938s-4.941-54.349-7.411-79.053h-12.353c-2.47 24.704-4.941 51.879-7.411 79.053s-4.941 44.468-4.941 46.938c0 4.941 2.47 9.881 4.941 14.823s7.411 4.941 12.353 4.941c4.941 0 9.881-2.47 12.353-4.941 7.411-4.941 7.411-9.881 7.411-14.823zM563.93-27.317h-264.336c-32.115 0-59.291 27.174-59.291 59.291v185.282c0 27.174 19.764 51.879 44.468 56.819v66.701c0 81.524 66.701 148.225 148.225 148.225s148.225-66.701 148.225-148.225v-64.231c24.704-7.411 44.468-29.645 44.468-56.819v-185.282c-2.47-37.057-29.645-61.761-61.761-61.761zM430.527 461.826c-66.701 0-123.521-54.349-123.521-123.521v-74.112c0-7.411-4.941-12.353-12.353-12.353-17.293 0-32.115-17.293-32.115-34.586v-185.282c0-19.764 14.823-34.586 34.586-34.586h264.336c19.764 0 34.586 14.823 34.586 34.586v185.282c0 17.293-14.823 34.586-32.115 34.586-7.411 0-12.353 4.941-12.353 12.353v74.112c2.47 69.172-51.879 123.521-121.050 123.521zM499.699 251.841h-135.873c-7.411 0-12.353 4.941-12.353 12.353v74.112c0 44.468 37.057 81.524 81.524 81.524s81.524-37.057 81.524-81.524v-74.112c-2.47-4.941-7.411-12.353-14.823-12.353zM376.178 276.545h111.169v64.231c0 29.645-24.704 56.819-56.819 56.819-29.645 0-56.819-24.704-56.819-56.819v-64.231z" />
<glyph unicode="&#xe673;" glyph-name="mic-nopad" d="M569.123-130.194h-21.157v-194.642h-71.933v194.642h-21.157v-194.642h-101.552v-21.157h317.35v21.157h-101.552zM746.839 163.884v-38.082c0-129.056-105.783-234.839-234.839-234.839s-234.839 105.783-234.839 234.839v38.082h-21.157v-38.082c0-141.75 114.246-255.996 255.996-255.996s255.996 114.246 255.996 255.996v38.082h-21.157zM512-45.567c99.436 0 179.832 80.395 179.832 179.832v363.895c0 99.436-80.395 179.832-179.832 179.832s-179.832-80.395-179.832-179.832v-363.895c0-99.436 80.395-179.832 179.832-179.832zM353.325 223.123h71.933v21.157h-71.933v67.701h71.933v21.157h-71.933v65.586h71.933v21.157h-71.933v78.28c0 86.742 71.933 158.675 158.675 158.675s158.675-71.933 158.675-158.675v-363.895c0-86.742-71.933-158.675-158.675-158.675s-158.675 71.933-158.675 158.675v88.858zM590.28 244.28h71.933v-21.157h-71.933v21.157zM590.28 333.138h71.933v-21.157h-71.933v21.157zM590.28 419.88h71.933v-21.157h-71.933v21.157z" />
<glyph unicode="&#xe67d;" glyph-name="overthephone-nopad" d="M611.755 102.92h-58.679c-14.67 0-23.472 14.67-23.472 41.075s8.802 41.075 23.472 41.075h58.679c14.67 0 23.472-14.67 23.472-41.075s-8.802-41.075-23.472-41.075zM558.943 132.259h44.009c0 2.934 0 5.868 0 11.736s0 8.802 0 11.736h-44.009c0-2.934 0-8.802 0-11.736s0-8.802 0-11.736zM737.915 102.92h-58.679c-14.67 0-23.472 14.67-23.472 41.075s8.802 41.075 23.472 41.075h58.679c14.67 0 23.472-14.67 23.472-41.075s-8.802-41.075-23.472-41.075zM688.038 132.259h44.009c0 2.934 0 5.868 0 11.736s0 8.802 0 11.736h-44.009c0-2.934 0-8.802 0-11.736s-2.934-8.802 0-11.736zM864.075 102.92h-58.679c-14.67 0-23.472 14.67-23.472 41.075s8.802 41.075 23.472 41.075h58.679c14.67 0 23.472-14.67 23.472-41.075s-8.802-41.075-23.472-41.075zM814.198 132.259h44.009c0 2.934 0 5.868 0 11.736s0 8.802 0 11.736h-44.009c0-2.934 0-5.868 0-11.736-2.934-2.934 0-8.802 0-11.736zM611.755 6.099h-58.679c-14.67 0-23.472 14.67-23.472 41.075s8.802 41.075 23.472 41.075h58.679c14.67 0 23.472-14.67 23.472-41.075s-8.802-41.075-23.472-41.075zM558.943 35.439h44.009c0 2.934 0 8.802 0 11.736s0 8.802 0 11.736h-44.009c0-2.934 0-8.802 0-11.736s0-8.802 0-11.736zM737.915 6.099h-58.679c-14.67 0-23.472 14.67-23.472 41.075s8.802 41.075 23.472 41.075h58.679c14.67 0 23.472-14.67 23.472-41.075s-8.802-41.075-23.472-41.075zM688.038 35.439h44.009c0 2.934 0 8.802 0 11.736s0 8.802 0 11.736h-44.009c0-2.934 0-8.802 0-11.736s-2.934-8.802 0-11.736zM864.075 6.099h-58.679c-14.67 0-23.472 14.67-23.472 41.075s8.802 41.075 23.472 41.075h58.679c14.67 0 23.472-14.67 23.472-41.075s-8.802-41.075-23.472-41.075zM814.198 35.439h44.009c0 2.934 0 8.802 0 11.736s0 8.802 0 11.736h-44.009c0-2.934 0-8.802 0-11.736s0-8.802 0-11.736zM611.755-90.722h-58.679c-14.67 0-23.472 14.67-23.472 41.075s8.802 41.075 23.472 41.075h58.679c14.67 0 23.472-14.67 23.472-41.075s-8.802-41.075-23.472-41.075zM558.943-61.382h44.009c0 2.934 0 8.802 0 11.736s0 8.802 0 11.736h-44.009c0-2.934 0-8.802 0-11.736s0-8.802 0-11.736zM737.915-90.722h-58.679c-14.67 0-23.472 14.67-23.472 41.075s8.802 41.075 23.472 41.075h58.679c14.67 0 23.472-14.67 23.472-41.075s-8.802-41.075-23.472-41.075zM688.038-61.382h44.009c0 2.934 0 8.802 0 11.736s0 8.802 0 11.736h-44.009c0-2.934 0-8.802 0-11.736s-2.934-8.802 0-11.736zM864.075-90.722h-58.679c-14.67 0-23.472 14.67-23.472 41.075s8.802 41.075 23.472 41.075h58.679c14.67 0 23.472-14.67 23.472-41.075s-8.802-41.075-23.472-41.075zM814.198-61.382h44.009c0 2.934 0 8.802 0 11.736s0 8.802 0 11.736h-44.009c0-2.934 0-8.802 0-11.736s0-8.802 0-11.736zM611.755-193.41h-58.679c-14.67 0-23.472 14.67-23.472 41.075s8.802 41.075 23.472 41.075h58.679c14.67 0 23.472-14.67 23.472-41.075 0-23.472-8.802-41.075-23.472-41.075zM558.943-164.071h44.009c0 2.934 0 8.802 0 11.736s0 8.802 0 11.736h-44.009c0-2.934 0-5.868 0-11.736s0-5.868 0-11.736zM737.915-193.41h-58.679c-14.67 0-23.472 14.67-23.472 41.075s8.802 41.075 23.472 41.075h58.679c14.67 0 23.472-14.67 23.472-41.075 0-23.472-8.802-41.075-23.472-41.075zM688.038-164.071h44.009c0 2.934 0 8.802 0 11.736s0 8.802 0 11.736h-44.009c0-2.934 0-5.868 0-11.736s-2.934-5.868 0-11.736zM864.075-193.41h-58.679c-14.67 0-23.472 14.67-23.472 41.075s8.802 41.075 23.472 41.075h58.679c14.67 0 23.472-14.67 23.472-41.075 0-23.472-8.802-41.075-23.472-41.075zM814.198-164.071h44.009c0 2.934 0 8.802 0 11.736s0 8.802 0 11.736h-44.009c0-2.934 0-5.868 0-11.736s0-5.868 0-11.736zM1001.972-313.703h-583.858v959.405h583.858v-959.405zM447.453-284.363h525.179v900.726h-525.179v-900.726zM312.491-345.976h-249.387c-23.472 0-41.075 29.34-41.075 70.415v883.122c0 38.141 17.604 70.415 41.075 70.415h249.387c23.472 0 41.075-29.34 41.075-70.415v-886.056c2.934-38.141-17.604-67.481-41.075-67.481zM312.491 645.703h-249.387c-2.934 0-11.736-14.67-11.736-41.075v-886.056c0-26.406 8.802-38.141 11.736-41.075h249.387c2.934 0 11.736 14.67 11.736 41.075v888.99c2.934 23.472-8.802 38.141-11.736 38.141z" />
<glyph unicode="&#xe67f;" glyph-name="phonenumber-nopad" d="M875.221 300.021v26.804h-168.866l48.247 348.454-26.804 2.68-48.247-351.134h-268.041l48.247 348.454-26.804 2.68-50.928-351.134h-190.309v-26.804h187.629l-40.206-278.763h-190.309v-26.804h184.948l-45.567-337.732 26.804-2.68 48.247 345.773h270.722l-48.247-343.093 26.804-2.68 48.247 345.773h171.546v26.804h-168.866l40.206 273.402h171.546zM636.664 23.938h-268.041l37.526 276.083h270.722l-40.206-276.083z" />
<glyph unicode="&#xe682;" glyph-name="repairs-installs-troubleshooting-nopad" d="M832.789 55.391h-12.641c-18.962 0-41.084-3.16-60.046-9.481l-139.054 139.054 145.375 145.375 180.139 116.932 75.848 148.535-82.169 82.169-145.375-79.008-116.932-180.139-145.375-145.375-139.054 139.054c6.321 18.962 9.481 41.084 9.481 60.046v12.641c-6.321 104.291-94.81 186.459-199.101 186.459-28.443 0-60.046-6.321-85.329-18.962l-18.962-9.481 139.054-139.054c6.321-6.321 9.481-12.641 9.481-15.802 6.321-15.802 3.16-34.764-9.481-47.405s-31.603-15.802-47.405-9.481c-6.321 3.16-12.641 6.321-15.802 9.481l-139.054 139.054-9.481-18.962c-12.641-28.443-18.962-56.886-18.962-85.329 0-104.291 82.169-192.78 186.459-199.101h12.641c18.962 0 37.924 3.16 60.046 9.481l107.451-107.451-341.315-341.315c-18.962-18.962-31.603-47.405-31.603-75.848s12.641-56.886 31.603-75.848c18.962-18.962 47.405-31.603 75.848-31.603s56.886 12.641 75.848 31.603l338.155 334.995 104.291-104.291c-6.321-18.962-9.481-41.084-9.481-60.046v-12.641c6.321-104.291 94.81-186.459 199.101-186.459 28.443 0 60.046 6.321 85.329 18.962l18.962 9.481-139.054 139.054c-3.16 3.16-6.321 9.481-9.481 15.802-6.321 18.962-3.16 34.764 9.481 47.405s28.443 18.962 47.405 9.481c6.321-3.16 12.641-6.321 15.802-9.481l139.054-139.054 9.481 18.962c12.641 28.443 18.962 56.886 18.962 85.329 6.321 107.451-75.848 192.78-180.139 202.261zM703.216 396.706l113.772 176.978 120.092 63.207 47.405-47.405-63.207-120.092-173.818-113.772-148.535-148.535-44.245 44.245 148.535 145.375zM162.8-292.246c-28.443-28.443-79.008-28.443-107.451 0-15.802 15.802-22.122 34.764-22.122 53.726s9.481 41.084 22.122 53.726l338.155 334.995 107.451-107.451-338.155-334.995zM981.324-197.436l-107.451 107.451c-6.321 6.321-15.802 12.641-28.443 18.962-28.443 12.641-60.046 3.16-82.169-15.802-22.122-22.122-28.443-53.726-18.962-82.169 3.16-6.321 9.481-18.962 18.962-28.443l107.451-107.451c-15.802-6.321-34.764-9.481-50.565-9.481-88.489 0-161.177 69.527-167.497 158.016v12.641c0 18.962 3.16 37.924 12.641 60.046l3.16 9.481-167.497 167.497-107.451 101.13-123.253 123.253-9.481-3.16c-22.122-6.321-41.084-12.641-56.886-12.641h-12.641c-88.489 6.321-158.016 79.008-158.016 167.497 0 15.802 3.16 34.764 9.481 50.565l107.451-107.451c6.321-6.321 15.802-12.641 28.443-18.962 28.443-12.641 60.046-3.16 82.169 15.802 22.122 22.122 28.443 53.726 18.962 82.169-3.16 9.481-9.481 22.122-18.962 28.443l-107.451 107.451c15.802 6.321 34.764 9.481 50.565 9.481 88.489 0 161.177-69.527 167.497-158.016v-9.481c0-18.962-3.16-37.924-9.481-60.046l-3.16-9.481 395.041-395.041 9.481 3.16c18.962 6.321 37.924 9.481 56.886 12.641h12.641c88.489-6.321 158.016-79.008 158.016-167.497-3.16-15.802-3.16-31.603-9.481-50.565z" />
<glyph unicode="&#xe689;" glyph-name="wifi-nopad" d="M325.609 24.343l-17.396 17.396c52.189 57.16 126.746 89.468 203.787 89.468s151.598-32.308 203.787-89.468l-17.396-17.396c-47.219 52.189-114.32 79.527-186.391 79.527-69.586 2.485-139.172-27.337-186.391-79.527zM512-224.178c-47.219 0-86.982 39.763-86.982 86.982s39.763 86.982 86.982 86.982 86.982-39.763 86.982-86.982-39.763-86.982-86.982-86.982zM512-77.551c-34.793 0-62.13-27.337-62.13-62.13s27.337-62.13 62.13-62.13 62.13 27.337 62.13 62.13c0 34.793-27.337 62.13-62.13 62.13zM166.555 180.911l-17.396 17.396c94.438 99.409 228.64 154.083 365.326 154.083s268.403-54.675 362.841-154.083l-17.396-17.396c-89.468 91.953-216.214 146.628-345.445 146.628-131.716 0-258.462-54.675-347.93-146.628zM17.443 325.054l-17.396 17.396c134.202 136.687 320.592 213.728 511.954 213.728s377.752-77.042 511.954-213.728l-17.396-17.396c-129.231 131.716-308.166 206.273-494.557 206.273-183.906 0-365.326-74.556-494.557-206.273z" />
<glyph unicode="&#xe691;" glyph-name="secureinternetconnection-nopad" d="M780.124-345.96h-538.65c-60.659 0-109.186 48.527-109.186 109.186v378.511c0 53.38 38.822 99.48 92.201 106.759v140.728c0 157.713 128.597 288.736 288.736 288.736s288.736-128.597 288.736-288.736v-140.728c50.953-9.705 89.775-53.38 89.775-106.759v-378.511c-2.426-60.659-50.953-109.186-111.612-109.186zM510.799 653.696c-145.581 0-264.472-118.891-264.472-264.472v-150.434c0-7.279-4.853-12.132-12.132-12.132-43.674-2.426-80.070-38.822-80.070-84.922v-378.511c0-46.101 38.822-84.922 84.922-84.922h541.076c46.101 0 84.922 38.822 84.922 84.922v378.511c0 43.674-33.969 82.496-80.070 84.922-7.279 0-12.132 4.853-12.132 12.132v152.86c2.426 145.581-116.465 262.046-262.046 262.046zM564.179-52.372c19.411 16.984 31.543 38.822 31.543 65.511 0 46.101-38.822 84.922-84.922 84.922s-84.922-38.822-84.922-84.922c0-24.264 12.132-48.527 31.543-65.511l-36.395-87.349c-2.426-4.853-2.426-9.705 2.426-14.558 2.426-4.853 7.279-7.279 12.132-7.279h150.434c4.853 0 9.705 2.426 12.132 7.279s2.426 9.705 2.426 14.558l-36.395 87.349zM649.101 226.659h-276.604c-7.279 0-12.132 4.853-12.132 12.132v152.86c0 82.496 67.938 150.434 150.434 150.434s150.434-67.938 150.434-150.434v-152.86c0-7.279-4.853-12.132-12.132-12.132zM384.629 250.922h254.767v140.728c0 70.364-58.232 126.17-126.17 126.17-70.364 0-126.17-55.806-126.17-126.17v-140.728z" />
<glyph unicode="&#xe6a1;" glyph-name="family_contact_card-nopad" d="M1023.973-1.413v457.466c0 27.253-21.413 48.667-48.667 48.667h-710.533c-27.253 0-48.667-21.413-48.667-48.667v-73.973h-167.413c-27.253 0-48.667-21.413-48.667-48.667v-457.466c0-27.253 21.413-48.667 48.667-48.667h710.533c27.253 0 48.667 21.413 48.667 48.667v73.973h165.467c27.253 0 50.613 21.413 50.613 48.667zM235.574 456.053c0 15.573 13.627 29.2 29.2 29.2h710.533c15.573 0 29.2-13.627 29.2-29.2v-457.466c0-15.573-13.627-29.2-29.2-29.2h-165.467v364.026c0 27.253-21.413 48.667-48.667 48.667h-525.6v73.973zM759.226-153.253h-710.533c-15.573 0-29.2 13.627-29.2 29.2v457.466c0 15.573 13.627 29.2 29.2 29.2h710.533c15.573 0 29.2-13.627 29.2-29.2v-457.466c0-15.573-11.68-29.2-29.2-29.2zM161.6 93.973c31.147 1.947 52.56 17.52 60.347 42.827 1.947-11.68 7.787-19.467 13.627-27.253 11.68-13.627 29.2-19.467 46.72-19.467 21.413 0 36.987 5.84 48.667 15.573l-15.573 19.467c-7.787-5.84-17.52-9.733-29.2-9.733-21.413 0-31.147 13.627-33.093 27.253h85.653v-50.613h31.147v190.773h-31.147v-110.96c-1.947 7.787-5.84 15.573-9.733 21.413-9.733 13.627-25.307 21.413-46.72 21.413-33.093 0-54.507-23.36-60.347-48.667-5.84 17.52-19.467 29.2-35.040 33.093 11.68 7.787 17.52 21.413 17.52 35.040s-5.84 25.307-13.627 33.093c-13.627 11.68-31.147 13.627-52.56 13.627h-42.827v-190.773c11.68 0 25.307 0 36.987 0 7.787 3.893 19.467 3.893 29.2 3.893zM282.294 193.253c15.573 0 25.307-9.733 27.253-23.36h-54.507c1.947 11.68 11.68 23.36 27.253 23.36zM126.56 259.44h9.733c7.787 0 15.573 0 19.467-1.947 9.733-3.893 13.627-11.68 13.627-21.413 0-7.787-3.893-21.413-19.467-25.307-1.947 0-7.787 0-13.627 0h-9.733v48.667zM126.56 183.52h21.413c5.84 0 13.627 0 17.52-1.947 15.573-3.893 23.36-15.573 23.36-29.2 0-15.573-7.787-27.253-25.307-31.147-3.893 0-9.733 0-13.627 0h-23.36v62.293zM393.253 284.747h31.147v-190.773h-31.147v190.773z" />
<glyph unicode="&#xe6a3;" glyph-name="mcAfee-nopad" d="M510.735-345.982c-5.11 0-10.22 0-15.33 2.555-426.698 150.75-408.812 845.73-408.812 876.391 0 25.551 20.441 43.436 45.991 43.436 235.067 0 347.49 91.983 350.046 91.983 17.886 12.775 40.881 12.775 58.767 0 5.11-2.555 114.978-91.983 350.046-91.983 25.551 0 43.436-17.886 45.991-43.436 0 0 0 0 0 0 0-30.661 17.886-725.642-408.812-876.391-7.665-2.555-12.775-2.555-17.886-2.555zM510.735 650.498c-5.11 0-7.665-2.555-12.775-5.11 0 0-120.089-97.093-365.376-97.093-10.22 0-17.886-7.665-20.441-17.886 0-28.106-17.886-707.756 390.927-850.841 5.11-2.555 7.665-2.555 12.775 0 408.812 143.084 390.927 822.735 390.927 850.841v0c0 10.22-7.665 17.886-20.441 17.886-242.732 0-360.266 94.538-365.376 97.093 0 5.11-5.11 5.11-10.22 5.11zM538.841 101.157c10.22 7.665 15.33 20.441 15.33 33.216 0 22.996-17.886 43.436-43.436 43.436-22.996 0-43.436-17.886-43.436-43.436 0-12.775 5.11-25.551 15.33-33.216l-17.886-43.436c0-2.555 0-5.11 0-7.665 2.555-2.555 5.11-2.555 7.665-2.555h76.652c2.555 0 5.11 2.555 7.665 2.555 2.555 2.555 2.555 5.11 0 7.665l-17.886 43.436zM648.709-54.703h-275.948c-33.216 0-61.322 28.106-61.322 61.322v191.631c0 28.106 20.441 53.657 45.991 58.767v66.432c0 84.318 68.987 153.305 153.305 153.305s153.305-68.987 153.305-153.305v-66.432c25.551-7.665 45.991-30.661 45.991-58.767v-191.631c0-33.216-28.106-61.322-61.322-61.322zM510.735 453.758c-68.987 0-127.754-56.212-127.754-127.754v-76.652c0-7.665-5.11-12.775-12.775-12.775-20.441 0-33.216-17.886-33.216-35.771v-191.631c0-20.441 15.33-35.771 35.771-35.771h273.393c20.441 0 35.771 15.33 35.771 35.771v191.631c0 20.441-15.33 35.771-33.216 35.771-7.665 0-12.775 5.11-12.775 12.775v76.652c2.555 68.987-56.212 127.754-125.199 127.754zM582.277 236.576h-140.529c-7.665 0-12.775 5.11-12.775 12.775v76.652c0 45.991 38.326 84.318 84.318 84.318s84.318-38.326 84.318-84.318v-76.652c-2.555-7.665-10.22-12.775-15.33-12.775zM451.968 262.127h114.978v63.877c0 30.661-25.551 58.767-58.767 58.767s-58.767-25.551-58.767-58.767v-63.877z" />
<glyph unicode="&#xe6a6;" glyph-name="threeway-calling-nopad" d="M356.314 109.698l-2.231 0.52c-34.798 8.030-70.767 16.321-77.979 32.121-0.985 2.156-3.959 8.699 3.941 23.607 41.601 78.425 49.39 146.738 21.953 192.354-18.663 31.043-52.68 48.832-93.333 48.832-40.951 0-75.191-18.068-93.928-49.576-27.474-46.174-19.444-114.264 22.622-191.703 8.030-14.796 5.075-21.302 4.127-23.459-7.138-15.8-44.222-24.332-76.938-31.879l-3.513-0.818c-61.472-14.164-61.268-48.999-60.989-97.199l0.037-10.744h22.604l-0.056 10.874c-0.26 47.252-0.372 64.948 43.479 75.060l3.513 0.799c41.508 9.555 80.73 18.589 92.459 44.631 5.651 12.529 4.015 27.176-4.852 43.516-38.106 70.153-46.304 130.324-23.068 169.379 14.778 24.834 41.229 38.515 74.503 38.515 33.013 0 59.279-13.458 73.964-37.883 23.198-38.553 15.187-98.965-22.548-170.104-8.718-16.432-10.242-31.099-4.536-43.59 11.841-25.931 51.49-35.095 93.463-44.761l2.231-0.502zM667.686 109.698l2.231 0.52c34.798 8.030 70.767 16.321 77.979 32.121 0.985 2.156 3.959 8.699-3.941 23.607-41.601 78.425-49.39 146.738-21.953 192.354 18.663 31.043 52.68 48.832 93.333 48.832 40.951 0 75.191-18.068 93.928-49.576 27.474-46.174 19.444-114.264-22.622-191.703-8.030-14.796-5.075-21.302-4.127-23.459 7.138-15.8 44.222-24.332 76.938-31.879l3.513-0.818c61.472-14.164 61.268-48.999 60.989-97.199l-0.037-10.744h-22.604l0.056 10.874c0.26 47.252 0.372 64.948-43.479 75.060l-3.513 0.799c-41.508 9.555-80.73 18.589-92.459 44.631-5.651 12.529-4.015 27.176 4.852 43.516 38.106 70.153 46.304 130.324 23.068 169.379-14.778 24.834-41.229 38.515-74.503 38.515-33.013 0-59.279-13.458-73.964-37.883-23.198-38.553-15.187-98.965 22.548-170.104 8.718-16.432 10.242-31.099 4.536-43.59-11.841-25.931-51.49-35.095-93.463-44.761l-2.231-0.502zM724.405 26.844l-3.234 0.762c-17.325 3.997-34.835 8.049-50.895 12.584-8.755 2.491-17.064 5.13-24.667 7.974-19.704 7.417-34.668 16.302-40.003 28.013-4.368 9.536-2.454 21.767 5.818 37.363 59.744 112.665 71.101 210.571 31.935 275.668-26.433 43.943-74.707 69.149-132.406 69.149-58.163 0-106.754-25.596-133.28-70.19-39.203-65.915-27.53-163.467 32.883-274.72 8.383-15.466 10.391-27.623 6.078-37.158-5.409-12.027-20.819-21.024-41.006-28.478-7.621-2.807-15.968-5.372-24.704-7.807-15.354-4.294-31.879-8.198-48.349-11.99l-5.075-1.171c-86.455-19.927-86.176-69.279-85.786-137.574l0.056-15.633h25.764l-0.056 15.763c-0.39 68.647-0.558 97.032 65.803 112.349l5.075 1.152c15.075 3.476 29.909 6.915 43.962 10.688 8.978 2.398 17.455 5.037 25.615 7.826 29.388 10.056 52.661 23.143 62.197 44.278 7.714 17.139 5.391 37.326-6.934 60.022-55.914 102.98-67.774 191.48-33.385 249.272 22.102 37.14 61.565 57.606 111.141 57.606 49.167 0 88.351-20.131 110.341-56.676 34.314-57.048 22.715-145.938-32.641-250.294-12.101-22.827-14.295-43.070-6.487-60.152 9.424-20.633 32.232-33.627 61.1-43.664 8.123-2.825 16.618-5.484 25.596-7.937 14.834-4.015 30.522-7.696 46.527-11.376l3.234-0.744c66.342-15.317 66.194-43.702 65.803-112.349l-0.074-15.763h25.764l0.056 15.633c0.409 68.294 0.688 117.647-85.767 137.574z" />
<glyph unicode="&#xe716;" glyph-name="mcafee-better-nopad" d="M470.8-345.954c-4.236 0-8.471 0-12.707 2.118-381.195 133.418-366.371 758.155-364.253 783.568 0 21.178 16.942 38.12 40.237 38.12 209.657 0 313.427 82.592 313.427 82.592 14.824 12.707 36.002 12.707 50.826 0 4.236-4.236 103.77-82.592 313.427-82.592 21.178 0 38.12-16.942 40.237-38.12 0 0 0 0 0 0 0-27.531 14.824-650.15-364.253-783.568-8.471-2.118-12.707-2.118-16.942-2.118zM470.8 549.854c-4.236 0-8.471-2.118-12.707-4.236 0 0-105.888-86.828-326.134-86.828-10.589 0-16.942-8.471-19.060-16.942 0-25.413-14.824-635.325 351.547-764.508 4.236-2.118 8.471-2.118 12.707 0 364.253 127.065 351.547 736.977 349.429 762.39v0c0 10.589-8.471 16.942-19.060 16.942-218.128 0-321.898 82.592-326.134 86.828-2.118 4.236-6.353 6.353-10.589 6.353zM691.047-176.534c-2.118 0-6.353 2.118-8.471 4.236-4.236 4.236-4.236 10.589 0 14.824 235.070 218.128 226.599 652.267 224.482 700.976 0 10.589-8.471 19.060-19.060 19.060-218.128 0-321.898 82.592-326.134 86.828-6.353 6.353-16.942 6.353-23.295 0 0 0-105.888-86.828-326.134-86.828-10.589 0-16.942-8.471-19.060-16.942 0-2.118 0-31.766 0-74.121 0-6.353-4.236-10.589-10.589-10.589s-10.589 4.236-10.589 10.589c-2.118 42.355-2.118 69.886 0 76.239 0 21.178 16.942 38.12 40.237 38.12 209.657 0 313.427 82.592 313.427 82.592 14.824 12.707 36.002 12.707 50.826 0 4.236-4.236 103.77-82.592 313.427-82.592 21.178 0 38.12-16.942 40.237-38.12 2.118-82.592 4.236-499.789-230.835-717.918-4.236-4.236-6.353-6.353-8.471-6.353zM455.976 92.42h21.178v-69.886h-21.178v69.886zM403.032 215.25c-6.353 0-10.589 4.236-10.589 10.589v65.65c0 0 0 14.824 10.589 27.531 12.707 12.707 31.766 19.060 59.297 19.060 6.353 0 10.589-4.236 10.589-10.589s-4.236-10.589-10.589-10.589c-21.178 0-36.002-4.236-44.473-12.707-6.353-6.353-6.353-12.707-6.353-12.707v-67.768c2.118-4.236-2.118-8.471-8.471-8.471zM523.744 215.25c-6.353 0-10.589 4.236-10.589 10.589v65.65c0 0 0 8.471-6.353 12.707-8.471 8.471-23.295 12.707-44.473 12.707-6.353 0-10.589 4.236-10.589 10.589s4.236 10.589 10.589 10.589c27.531 0 48.708-6.353 59.297-19.060 12.707-12.707 10.589-27.531 10.589-27.531v-65.65c2.118-6.353-2.118-10.589-8.471-10.589zM466.565-98.178c-84.71 0-154.596 69.886-154.596 154.596s69.886 154.596 154.596 154.596c84.71 0 154.596-69.886 154.596-154.596 2.118-86.828-67.768-154.596-154.596-154.596zM466.565 189.837c-74.121 0-133.418-59.297-133.418-133.418s59.297-133.418 133.418-133.418c74.121 0 133.418 59.297 133.418 133.418 2.118 74.121-59.297 133.418-133.418 133.418z" />
<glyph unicode="&#xe717;" glyph-name="mcafee-best-nopad" d="M431.79-345.982c-3.824 0-7.649 0-11.473 1.912-344.188 120.466-330.803 684.552-328.891 707.498 0 19.122 15.297 34.419 36.331 34.419 189.304 0 282.999 74.574 282.999 74.574 13.385 11.473 32.507 11.473 45.892 0 3.824-3.824 93.696-74.574 282.999-74.574 19.122 0 34.419-15.297 36.331-34.419 0 0 0 0 0 0 0-24.858 13.385-587.032-328.891-707.498-7.649-1.912-11.473-1.912-15.297-1.912zM431.79 462.86c-3.824 0-7.649-1.912-11.473-3.824-3.824-3.824-97.52-78.398-296.384-78.398-9.561 0-15.297-7.649-17.209-15.297 0-22.946-13.385-573.647 317.418-690.289 3.824-1.912 7.649-1.912 11.473 0 330.803 116.642 317.418 665.431 317.418 690.289 0 9.561-7.649 15.297-17.209 15.297-196.952 0-290.648 74.574-294.472 78.398-1.912 1.912-5.736 3.824-9.561 3.824zM630.654-191.098c-1.912 0-5.736 1.912-7.649 3.824-3.824 3.824-3.824 9.561 0 13.385 214.162 195.040 206.513 587.032 204.601 631.012 0 9.561-7.649 17.209-17.209 17.209-198.864 0-294.472 78.398-294.472 78.398-5.736 5.736-15.297 5.736-21.034 0-3.824-3.824-97.52-78.398-296.384-78.398-9.561 0-15.297-7.649-17.209-15.297 0-1.912 0-28.682 0-66.925 0-5.736-3.824-9.561-9.561-9.561s-9.561 3.824-9.561 9.561c-1.912 40.155 0 65.013 0 68.838 0 19.122 15.297 34.419 36.331 34.419 189.304 0 282.999 74.574 282.999 74.574 13.385 11.473 32.507 11.473 45.892 0 0 0 93.696-74.574 282.999-74.574 19.122 0 34.419-15.297 36.331-34.419 1.912-74.574 3.824-451.269-208.425-648.221-1.912-3.824-3.824-3.824-7.649-3.824zM716.701-93.578c-1.912 0-5.736 1.912-7.649 3.824-3.824 3.824-3.824 9.561 0 13.385 206.513 191.216 206.513 560.262 202.689 632.924 0 9.561-7.649 17.209-17.209 17.209-198.864 0-294.472 78.398-294.472 78.398-5.736 5.736-15.297 5.736-21.034 0 0 0-95.608-78.398-294.472-78.398-9.561 0-15.297-7.649-17.209-15.297 0-1.912 0-28.682 0-66.925 0-5.736-3.824-9.561-9.561-9.561 0 0 0 0 0 0-5.736 0-9.561 3.824-9.561 9.561-1.912 38.243-1.912 63.101 0 68.838 0 19.122 15.297 34.419 36.331 34.419 189.304 0 282.999 74.574 282.999 74.574 13.385 11.473 32.507 11.473 45.892 0 0 0 93.696-74.574 282.999-74.574 19.122 0 34.419-15.297 36.331-34.419 1.912-74.574 3.824-451.269-208.425-648.221-1.912-3.824-3.824-5.736-7.649-5.736zM429.878-24.74c-5.736 0-9.561 3.824-9.561 9.561v65.013c0 5.736 3.824 9.561 9.561 9.561s9.561-3.824 9.561-9.561v-63.101c0-5.736-5.736-11.473-9.561-11.473zM372.513 160.739c-5.736 0-9.561 3.824-9.561 9.561v59.277c0 0 0 13.385 9.561 24.858 11.473 11.473 28.682 17.209 53.54 17.209 5.736 0 9.561-3.824 9.561-9.561s-3.824-9.561-9.561-9.561c-19.122 0-32.507-3.824-40.155-11.473-5.736-5.736-5.736-11.473-5.736-11.473v-61.189c1.912-3.824-3.824-7.649-7.649-7.649zM479.594 160.739c-5.736 0-9.561 3.824-9.561 9.561v59.277c0 0 0 7.649-5.736 11.473-7.649 7.649-21.034 11.473-40.155 11.473-5.736 0-9.561 3.824-9.561 9.561s3.824 9.561 9.561 9.561c24.858 0 43.98-5.736 53.54-17.209 11.473-11.473 9.561-24.858 9.561-26.77v-59.277c1.912-3.824-1.912-7.649-7.649-7.649zM429.878-122.26c-76.486 0-139.587 63.101-139.587 139.587s63.101 139.587 139.587 139.587 139.587-63.101 139.587-139.587-63.101-139.587-139.587-139.587zM429.878 137.793c-66.925 0-120.466-53.54-120.466-120.466s53.54-120.466 120.466-120.466c66.925 0 120.466 53.54 120.466 120.466s-53.54 120.466-120.466 120.466z" />
<glyph unicode="&#xe806;" glyph-name="fibe-on-demand-nopad" d="M387.28-57.312v337.343l287.454-168.672-287.454-168.672zM411.036 239.645v-254.195l218.56 125.91-218.56 128.285zM1023.956-221.232h-1023.908v660.433h1023.908v-660.433zM23.804-197.475h976.395v612.919h-976.395v-612.919zM47.561 496.216h921.755v-23.757h-921.755v23.757zM121.206 553.232h793.469v-23.757h-793.469v23.757z" />
<glyph unicode="&#xe809;" glyph-name="fibetv-nopad" d="M284.298 306.476h103.823v-20.847h-78.925v-64.104h72.899v-20.565h-72.899v-87.233h-24.898v192.748zM408.075 252.137h25.154v-138.413h-25.154v138.413zM436.101 291.061c0.282-8.59-6.026-15.462-16-15.462-8.898 0-15.18 6.872-15.18 15.462 0 8.846 6.59 15.718 15.718 15.718 9.436 0 15.462-6.872 15.462-15.718zM492.684 169.216c0-3.154 0.564-6.282 1.154-9.154 4.846-17.436 19.462-29.462 37.77-29.462 26.308 0 42.027 21.462 42.027 53.181 0 27.744-14.282 51.488-41.18 51.488-17.154 0-33.18-11.718-38.309-30.873-0.59-2.872-1.462-6.333-1.462-10.308v-24.872zM466.658 113.728c0.59 9.436 1.154 23.462 1.154 35.744v167.312h24.872v-86.951h0.564c8.872 15.436 24.898 25.462 47.206 25.462 34.334 0 58.617-28.59 58.36-70.643 0-49.463-31.18-74.079-62.078-74.079-20.026 0-36.052 7.744-46.334 26.052h-0.846l-1.154-22.898h-21.744zM711.115 196.374c0.308 16.026-6.564 40.898-34.873 40.898-25.488 0-36.616-23.436-38.616-40.898h73.489zM637.319 178.348c0.59-34.026 22.308-48.052 47.488-48.052 18.026 0 28.898 3.154 38.334 7.18l4.282-18.026c-8.872-4-24.026-8.564-46.052-8.564-42.591 0-68.053 28.001-68.053 69.771 0 41.745 24.59 74.643 64.925 74.643 45.155 0 57.181-39.77 57.181-65.207 0-5.154-0.564-9.18-0.846-11.744h-97.259zM806.779-212.733h-589.552c-7.103 0-12.821 5.744-12.821 12.821s5.718 12.821 12.821 12.821h589.552c7.077 0 12.821-5.744 12.821-12.821s-5.744-12.821-12.821-12.821zM25.681-90.512h972.638v609.553h-972.638v-609.553zM1011.14-116.154h-998.28c-7.077 0-12.821 5.744-12.821 12.821v635.22c0 7.077 5.744 12.821 12.821 12.821h998.28c7.077 0 12.821-5.744 12.821-12.821v-635.22c0-7.077-5.744-12.821-12.821-12.821z" />
<glyph unicode="&#xe80b;" glyph-name="search-nopad" d="M772.944-64.886l-40.153-40.126 240.919-240.946 40.153 40.18-240.919 240.892zM684.393 3.856c-145.033-145.033-380.197-145.033-525.23 0-145.033 145.087-145.033 380.277 0 525.364 145.033 145.060 380.197 145.060 525.23 0 145.033-145.087 145.033-380.277 0-525.364zM712.821 557.462c-160.747 160.666-421.367 160.666-582.114 0s-160.747-421.18 0-581.846c160.747-160.693 421.367-160.693 582.114 0 160.72 160.666 160.72 421.18 0 581.846z" />
<glyph unicode="&#xe900;" glyph-name="installation" horiz-adv-x="908" d="M881.778 694.657c-12.929 0-23.273-10.343-23.273-23.273v-111.192c-95.677 90.505-219.798 139.636-349.091 139.636-137.051 0-263.758-51.717-359.434-149.98-199.111-199.111-199.111-522.343 0-718.869 95.677-95.677 224.97-149.98 359.434-149.98s263.758 51.717 359.434 149.98c7.758 7.758 7.758 18.101 0 25.859s-18.101 7.758-25.859 0c-87.919-87.919-206.869-137.051-333.576-137.051s-245.657 49.131-333.576 137.051c-183.596 183.596-183.596 483.556 0 667.152 87.919 87.919 206.869 137.051 333.576 137.051 124.121 0 240.485-49.131 330.99-134.465h-121.535c-12.929 0-23.273-10.343-23.273-23.273s10.343-23.273 23.273-23.273h165.495c12.929 0 23.273 10.343 23.273 23.273v168.081c0 12.929-12.929 23.273-25.859 23.273zM364.606 61.121v49.131h31.030v41.374h-31.030v155.152h-38.788l-106.020-155.152v-41.374h98.263v-49.131h46.545zM263.758 149.040l56.889 82.747v-82.747h-56.889zM424.081 167.141c-7.758-10.343-10.343-23.273-10.343-36.202 0-23.273 7.758-41.374 25.859-56.889 15.515-10.343 33.616-18.101 54.303-18.101 23.273 0 43.96 7.758 56.889 20.687s20.687 31.030 20.687 54.303c0 12.929-2.586 25.859-10.343 36.202s-18.101 18.101-31.030 23.273c10.343 5.172 18.101 10.343 25.859 20.687 5.172 7.758 7.758 18.101 7.758 31.030 0 18.101-5.172 33.616-18.101 43.96-12.929 12.929-31.030 18.101-54.303 18.101s-41.374-5.172-54.303-18.101c-12.929-12.929-18.101-25.859-18.101-43.96 0-10.343 2.586-20.687 7.758-28.444s12.929-15.515 25.859-20.687c-10.343-7.758-20.687-15.515-28.444-25.859zM473.212 260.232c5.172 5.172 12.929 7.758 20.687 7.758s15.515-2.586 20.687-7.758c5.172-5.172 7.758-12.929 7.758-20.687 0-10.343-2.586-15.515-7.758-20.687s-12.929-7.758-20.687-7.758c-7.758 0-15.515 2.586-20.687 7.758s-7.758 12.929-7.758 20.687c0 7.758 2.586 15.515 7.758 20.687zM468.040 159.384c5.172 7.758 12.929 12.929 25.859 12.929 10.343 0 18.101-2.586 23.273-10.343s10.343-15.515 10.343-28.444c0-12.929-2.586-23.273-10.343-31.030s-15.515-10.343-23.273-10.343c-10.343 0-18.101 2.586-25.859 10.343s-10.343 18.101-10.343 31.030c2.586 10.343 5.172 18.101 10.343 25.859zM809.374 61.121v243.071h-49.131v-95.677h-95.677v95.677h-49.131v-243.071h49.131v106.020h95.677v-106.020z" />
<glyph unicode="&#xe901;" glyph-name="calling-features" d="M990.72 649.84h-483.84c-10.24 0-15.36-7.68-15.36-15.36v-102.4h-46.080v81.92c0 35.84-17.92 64-40.96 64h-220.16c-23.040 0-40.96-28.16-40.96-64v-53.76h-89.6c-23.040 0-40.96-28.16-40.96-64v-773.12c0-35.84 17.92-64 40.96-64h217.6c23.040 0 40.96 28.16 40.96 64v773.12c0 35.84-17.92 64-40.96 64h-94.72v53.76c0 17.92 7.68 30.72 7.68 30.72h215.040c2.56-2.56 10.24-12.8 10.24-30.72v-81.92h-33.28c-10.24 0-15.36-7.68-15.36-15.36v-811.52c0-10.24 7.68-17.92 15.36-17.92h483.84c10.24 0 17.92 7.68 17.92 17.92v102.4c0 0 0 0 2.56 0h112.64c10.24 0 17.92 7.68 17.92 17.92v808.96c-5.12 7.68-12.8 15.36-20.48 15.36zM279.040 496.24v-773.12c0-17.92-7.68-30.72-7.68-30.72h-215.040c-2.56 2.56-10.24 12.8-10.24 30.72v773.12c0 17.92 7.68 30.72 7.68 30.72h215.040c2.56-2.56 10.24-12.8 10.24-30.72zM842.24-279.44h-450.56v778.24h450.56v-778.24zM972.8-159.12h-94.72c0 0 0 0-2.56 0v673.28c0 10.24-7.68 15.36-17.92 15.36h-335.36v87.040h450.56v-775.68zM478.72 68.72h51.2c7.68 5.12 10.24 15.36 7.68 23.040 2.56 7.68 0 17.92-7.68 23.040h-51.2c-7.68-5.12-10.24-15.36-7.68-23.040 0-7.68 2.56-15.36 7.68-23.040zM591.36 68.72h51.2c5.12 7.68 7.68 15.36 5.12 23.040 2.56 7.68 0 17.92-7.68 23.040h-51.2c-7.68-5.12-10.24-15.36-7.68-23.040 0-7.68 2.56-17.92 10.24-23.040zM701.44 68.72h51.2c7.68 5.12 10.24 15.36 7.68 23.040 2.56 7.68 0 17.92-7.68 23.040h-51.2c-7.68-5.12-10.24-15.36-7.68-23.040-2.56-7.68 0-15.36 7.68-23.040zM478.72-15.76h51.2c7.68 5.12 10.24 15.36 7.68 23.040 2.56 7.68 0 17.92-7.68 23.040h-51.2c-7.68-5.12-10.24-15.36-7.68-23.040 0-7.68 2.56-15.36 7.68-23.040zM591.36-15.76h51.2c5.12 5.12 7.68 15.36 5.12 23.040 2.56 7.68 0 17.92-7.68 23.040h-51.2c-7.68-5.12-10.24-15.36-7.68-23.040 0-7.68 2.56-17.92 10.24-23.040zM701.44-15.76h51.2c7.68 5.12 10.24 15.36 7.68 23.040 2.56 7.68 0 17.92-7.68 23.040h-51.2c-7.68-5.12-10.24-15.36-7.68-23.040-2.56-7.68 0-15.36 7.68-23.040zM478.72-54.16c-10.24-15.36-10.24-33.28 0-48.64h51.2c10.24 15.36 10.24 33.28 0 48.64h-51.2zM591.36-54.16c-10.24-15.36-10.24-33.28 0-48.64h51.2c10.24 15.36 10.24 33.28 0 48.64h-51.2zM701.44-54.16c-10.24-15.36-10.24-33.28 0-48.64h51.2c10.24 15.36 10.24 33.28 0 48.64h-51.2zM478.72-141.2c-10.24-15.36-10.24-33.28 0-48.64h51.2c10.24 15.36 10.24 33.28 0 48.64h-51.2zM591.36-141.2c-10.24-15.36-10.24-33.28 0-48.64h51.2c10.24 15.36 10.24 33.28 0 48.64h-51.2zM701.44-141.2c-10.24-15.36-10.24-33.28 0-48.64h51.2c10.24 15.36 10.24 33.28 0 48.64h-51.2z" />
<glyph unicode="&#xe902;" glyph-name="download-speed-1" d="M512 678c-281.971 0-512-230.029-512-512s230.029-512 512-512 512 230.029 512 512-230.029 512-512 512zM512-308.899c-262.184 0-474.899 212.715-474.899 474.899s212.715 474.899 474.899 474.899 474.899-212.715 474.899-474.899-212.715-474.899-474.899-474.899zM145.932 297.092l64.309-27.208c2.473 0 4.947-2.473 7.42-2.473 7.42 0 14.841 4.947 17.314 12.367 4.947 9.894 0 19.787-9.894 24.734l-64.309 27.208c-9.894 4.947-19.787 0-24.734-9.894-2.473-9.894 2.473-19.787 9.894-24.734zM274.551 376.242c2.473-2.473 7.42-4.947 12.367-4.947s9.894 2.473 12.367 4.947c7.42 7.42 7.42 19.787 0 27.208l-49.469 49.469c-7.42 7.42-19.787 7.42-27.208 0s-7.42-19.787 0-27.208l51.942-49.469zM798.918 452.918c-7.42 7.42-19.787 7.42-27.208 0l-49.469-49.469c-7.42-7.42-7.42-19.787 0-27.208 2.473-2.473 7.42-4.947 12.367-4.947s9.894 2.473 12.367 4.947l49.469 49.469c9.894 7.42 9.894 19.787 2.473 27.208zM373.488 452.918c2.473-7.42 9.894-12.367 17.314-12.367 2.473 0 4.947 0 7.42 2.473 9.894 4.947 14.841 14.841 9.894 24.734l-27.208 64.309c-4.947 9.894-14.841 14.841-24.734 9.894s-14.841-14.841-9.894-24.734l27.208-64.309zM512 465.285c9.894 0 19.787 7.42 19.787 19.787v69.256c0 9.894-7.42 19.787-19.787 19.787s-17.314-9.894-17.314-19.787v-71.729c0-9.894 7.42-17.314 17.314-17.314zM667.826 541.961c-9.894 4.947-19.787 0-24.734-9.894l-27.208-64.309c-4.947-9.894 0-19.787 9.894-24.734 2.473 0 4.947-2.473 7.42-2.473 7.42 0 14.841 4.947 17.314 12.367l27.208 64.309c4.947 9.894 0 19.787-9.894 24.734zM789.024 279.778c2.473-7.42 9.894-12.367 17.314-12.367 2.473 0 4.947 0 7.42 2.473l64.309 27.208c9.894 4.947 14.841 14.841 9.894 24.734s-14.841 14.841-24.734 9.894l-64.309-27.208c-9.894-4.947-14.841-14.841-9.894-24.734zM900.329 183.314h-71.729c-9.894 0-19.787-7.42-19.787-19.787s7.42-19.787 19.787-19.787h71.729c9.894 0 19.787 7.42 19.787 19.787s-9.894 19.787-19.787 19.787zM878.068 34.908l-64.309 27.208c-9.894 4.947-19.787 0-24.734-9.894s0-19.787 9.894-24.734l64.309-27.208c2.473 0 4.947-2.473 7.42-2.473 7.42 0 14.841 4.947 17.314 12.367 2.473 9.894-2.473 19.787-9.894 24.734zM212.715 62.116l-66.783-27.208c-9.894-4.947-14.841-14.841-9.894-24.734 2.473-7.42 9.894-12.367 17.314-12.367 2.473 0 4.947 0 7.42 2.473l64.309 27.208c9.894 4.947 14.841 14.841 9.894 24.734-2.473 9.894-14.841 12.367-22.261 9.894zM512 255.043c-42.048 0-79.15-29.681-86.57-71.729h-301.758c-9.894 0-19.787-7.42-19.787-19.787s7.42-19.787 19.787-19.787h301.758c7.42-39.575 44.522-69.256 86.57-69.256 49.469 0 89.043 39.575 89.043 89.043 0 51.942-39.575 91.517-89.043 91.517zM512 114.058c-29.681 0-51.942 22.261-51.942 51.942s22.261 51.942 51.942 51.942c29.681 0 51.942-22.261 51.942-51.942s-22.261-51.942-51.942-51.942z" />
<glyph unicode="&#xe903;" glyph-name="download-speed-2" d="M512 678c-281.971 0-512-230.029-512-512s230.029-512 512-512 512 230.029 512 512-230.029 512-512 512zM512-308.899c-262.184 0-474.899 212.715-474.899 474.899s212.715 474.899 474.899 474.899 474.899-212.715 474.899-474.899-212.715-474.899-474.899-474.899zM220.135 166c0 9.894-7.42 19.787-19.787 19.787h-76.676c-9.894 0-19.787-7.42-19.787-19.787s7.42-19.787 19.787-19.787h76.676c9.894 0 19.787 9.894 19.787 19.787zM274.551 376.242c2.473-2.473 7.42-4.947 12.367-4.947s9.894 2.473 12.367 4.947c7.42 7.42 7.42 19.787 0 27.208l-49.469 49.469c-7.42 7.42-19.787 7.42-27.208 0s-7.42-19.787 0-27.208l51.942-49.469zM798.918 452.918c-7.42 7.42-19.787 7.42-27.208 0l-49.469-49.469c-7.42-7.42-7.42-19.787 0-27.208 2.473-2.473 7.42-4.947 12.367-4.947s9.894 2.473 12.367 4.947l49.469 49.469c9.894 7.42 9.894 19.787 2.473 27.208zM373.488 452.918c2.473-7.42 9.894-12.367 17.314-12.367 2.473 0 4.947 0 7.42 2.473 9.894 4.947 14.841 14.841 9.894 24.734l-27.208 64.309c-4.947 9.894-14.841 14.841-24.734 9.894s-14.841-14.841-9.894-24.734l27.208-64.309zM512 465.285c9.894 0 19.787 7.42 19.787 19.787v69.256c0 9.894-7.42 19.787-19.787 19.787s-17.314-9.894-17.314-19.787v-71.729c0-9.894 7.42-17.314 17.314-17.314zM667.826 541.961c-9.894 4.947-19.787 0-24.734-9.894l-27.208-64.309c-4.947-9.894 0-19.787 9.894-24.734 2.473 0 4.947-2.473 7.42-2.473 7.42 0 14.841 4.947 17.314 12.367l27.208 64.309c4.947 9.894 0 19.787-9.894 24.734zM789.024 279.778c2.473-7.42 9.894-12.367 17.314-12.367 2.473 0 4.947 0 7.42 2.473l64.309 27.208c9.894 4.947 14.841 14.841 9.894 24.734s-14.841 14.841-24.734 9.894l-64.309-27.208c-9.894-4.947-14.841-14.841-9.894-24.734zM900.329 183.314h-71.729c-9.894 0-19.787-7.42-19.787-19.787s7.42-19.787 19.787-19.787h71.729c9.894 0 19.787 7.42 19.787 19.787s-9.894 19.787-19.787 19.787zM878.068 34.908l-64.309 27.208c-9.894 4.947-19.787 0-24.734-9.894s0-19.787 9.894-24.734l64.309-27.208c2.473 0 4.947-2.473 7.42-2.473 7.42 0 14.841 4.947 17.314 12.367 2.473 9.894-2.473 19.787-9.894 24.734zM212.715 62.116l-66.783-27.208c-9.894-4.947-14.841-14.841-9.894-24.734 2.473-7.42 9.894-12.367 17.314-12.367 2.473 0 4.947 0 7.42 2.473l64.309 27.208c9.894 4.947 14.841 14.841 9.894 24.734-2.473 9.894-14.841 12.367-22.261 9.894zM512 255.043c-29.681 0-54.415-14.841-71.729-37.101l-279.498 113.778c-9.894 4.947-19.787 0-24.734-9.894s0-19.787 9.894-24.734l277.024-113.778c-2.473-4.947-2.473-12.367-2.473-19.787 0-49.469 39.575-89.043 89.043-89.043s89.043 39.575 89.043 89.043c2.473 51.942-37.101 91.517-86.57 91.517zM512 114.058c-29.681 0-51.942 22.261-51.942 51.942s22.261 51.942 51.942 51.942c29.681 0 51.942-22.261 51.942-51.942s-22.261-51.942-51.942-51.942z" />
<glyph unicode="&#xe904;" glyph-name="download-speed-3" d="M225.082 304.512l-64.309 27.208c-9.894 4.947-19.787 0-24.734-9.894s0-19.787 9.894-24.734l64.309-27.208c2.473 0 4.947-2.473 7.42-2.473 7.42 0 14.841 4.947 17.314 12.367 4.947 9.894 0 19.787-9.894 24.734zM512 678c-281.971 0-512-230.029-512-512s230.029-512 512-512c281.971 0 512 230.029 512 512s-230.029 512-512 512zM512-308.899c-262.184 0-474.899 212.715-474.899 474.899s212.715 474.899 474.899 474.899c262.184 0 474.899-212.715 474.899-474.899s-212.715-474.899-474.899-474.899zM220.135 166c0 9.894-7.42 19.787-19.787 19.787h-76.676c-9.894 0-19.787-7.42-19.787-19.787s7.42-19.787 19.787-19.787h76.676c9.894 0 19.787 9.894 19.787 19.787zM798.918 452.918c-7.42 7.42-19.787 7.42-27.208 0l-49.469-49.469c-7.42-7.42-7.42-19.787 0-27.208 2.473-2.473 7.42-4.947 12.367-4.947s9.894 2.473 12.367 4.947l49.469 49.469c9.894 7.42 9.894 19.787 2.473 27.208zM373.488 452.918c2.473-7.42 9.894-12.367 17.314-12.367 2.473 0 4.947 0 7.42 2.473 9.894 4.947 14.841 14.841 9.894 24.734l-27.208 64.309c-4.947 9.894-14.841 14.841-24.734 9.894s-14.841-14.841-9.894-24.734l27.208-64.309zM512 465.285c9.894 0 19.787 7.42 19.787 19.787v69.256c0 9.894-7.42 19.787-19.787 19.787s-17.314-9.894-17.314-19.787v-71.729c0-9.894 7.42-17.314 17.314-17.314zM667.826 541.961c-9.894 4.947-19.787 0-24.734-9.894l-27.208-64.309c-4.947-9.894 0-19.787 9.894-24.734 2.473 0 4.947-2.473 7.42-2.473 7.42 0 14.841 4.947 17.314 12.367l27.208 64.309c4.947 9.894 0 19.787-9.894 24.734zM789.024 279.778c2.473-7.42 9.894-12.367 17.314-12.367 2.473 0 4.947 0 7.42 2.473l64.309 27.208c9.894 4.947 14.841 14.841 9.894 24.734s-14.841 14.841-24.734 9.894l-64.309-27.208c-9.894-4.947-14.841-14.841-9.894-24.734zM900.329 183.314h-71.729c-9.894 0-19.787-7.42-19.787-19.787s7.42-19.787 19.787-19.787h71.729c9.894 0 19.787 7.42 19.787 19.787s-9.894 19.787-19.787 19.787zM878.068 34.908l-64.309 27.208c-9.894 4.947-19.787 0-24.734-9.894s0-19.787 9.894-24.734l64.309-27.208c2.473 0 4.947-2.473 7.42-2.473 7.42 0 14.841 4.947 17.314 12.367 2.473 9.894-2.473 19.787-9.894 24.734zM212.715 62.116l-66.783-27.208c-9.894-4.947-14.841-14.841-9.894-24.734 2.473-7.42 9.894-12.367 17.314-12.367 2.473 0 4.947 0 7.42 2.473l64.309 27.208c9.894 4.947 14.841 14.841 9.894 24.734-2.473 9.894-14.841 12.367-22.261 9.894zM512 255.043c-17.314 0-32.155-4.947-46.995-14.841l-215.188 212.715c-7.42 7.42-19.787 7.42-27.208 0s-7.42-19.787 0-27.208l212.715-210.242c-9.894-14.841-14.841-32.155-14.841-49.469 0-49.469 39.575-89.043 89.043-89.043s89.043 39.575 89.043 89.043c2.473 49.469-37.101 89.043-86.57 89.043zM512 114.058c-29.681 0-51.942 22.261-51.942 51.942s22.261 51.942 51.942 51.942 51.942-22.261 51.942-51.942-22.261-51.942-51.942-51.942z" />
<glyph unicode="&#xe905;" glyph-name="download-speed-4" d="M225.082 304.512l-64.309 27.208c-9.894 4.947-19.787 0-24.734-9.894s0-19.787 9.894-24.734l64.309-27.208c2.473 0 4.947-2.473 7.42-2.473 7.42 0 14.841 4.947 17.314 12.367 4.947 9.894 0 19.787-9.894 24.734zM512 678c-281.971 0-512-230.029-512-512s230.029-512 512-512 512 230.029 512 512-230.029 512-512 512zM512-308.899c-262.184 0-474.899 212.715-474.899 474.899s212.715 474.899 474.899 474.899 474.899-212.715 474.899-474.899-212.715-474.899-474.899-474.899zM220.135 166c0 9.894-7.42 19.787-19.787 19.787h-76.676c-9.894 0-19.787-7.42-19.787-19.787s7.42-19.787 19.787-19.787h76.676c9.894 0 19.787 9.894 19.787 19.787zM252.29 452.918c-7.42 7.42-19.787 7.42-27.208 0s-7.42-19.787 0-27.208l49.469-49.469c2.473-2.473 7.42-4.947 12.367-4.947s9.894 2.473 12.367 4.947c7.42 7.42 7.42 19.787 0 27.208l-46.995 49.469zM798.918 452.918c-7.42 7.42-19.787 7.42-27.208 0l-49.469-49.469c-7.42-7.42-7.42-19.787 0-27.208 2.473-2.473 7.42-4.947 12.367-4.947s9.894 2.473 12.367 4.947l49.469 49.469c9.894 7.42 9.894 19.787 2.473 27.208zM380.908 532.068c-4.947 9.894-14.841 14.841-24.734 9.894s-14.841-14.841-9.894-24.734l27.208-64.309c2.473-7.42 9.894-12.367 17.314-12.367 2.473 0 4.947 0 7.42 2.473 9.894 4.947 14.841 14.841 9.894 24.734l-27.208 64.309zM667.826 541.961c-9.894 4.947-19.787 0-24.734-9.894l-27.208-64.309c-4.947-9.894 0-19.787 9.894-24.734 2.473 0 4.947-2.473 7.42-2.473 7.42 0 14.841 4.947 17.314 12.367l27.208 64.309c4.947 9.894 0 19.787-9.894 24.734zM789.024 279.778c2.473-7.42 9.894-12.367 17.314-12.367 2.473 0 4.947 0 7.42 2.473l64.309 27.208c9.894 4.947 14.841 14.841 9.894 24.734s-14.841 14.841-24.734 9.894l-64.309-27.208c-9.894-4.947-14.841-14.841-9.894-24.734zM900.329 183.314h-71.729c-9.894 0-19.787-7.42-19.787-19.787s7.42-19.787 19.787-19.787h71.729c9.894 0 19.787 7.42 19.787 19.787s-9.894 19.787-19.787 19.787zM878.068 34.908l-64.309 27.208c-9.894 4.947-19.787 0-24.734-9.894s0-19.787 9.894-24.734l64.309-27.208c2.473 0 4.947-2.473 7.42-2.473 7.42 0 14.841 4.947 17.314 12.367 2.473 9.894-2.473 19.787-9.894 24.734zM212.715 62.116l-66.783-27.208c-9.894-4.947-14.841-14.841-9.894-24.734 2.473-7.42 9.894-12.367 17.314-12.367 2.473 0 4.947 0 7.42 2.473l64.309 27.208c9.894 4.947 14.841 14.841 9.894 24.734-2.473 9.894-14.841 12.367-22.261 9.894zM531.787 252.57v301.758c0 9.894-7.42 19.787-19.787 19.787s-17.314-9.894-17.314-19.787v-301.758c-39.575-7.42-71.729-44.522-71.729-86.57 0-49.469 39.575-89.043 89.043-89.043s89.043 39.575 89.043 89.043c0 42.048-29.681 79.15-69.256 86.57zM512 114.058c-29.681 0-51.942 22.261-51.942 51.942s22.261 51.942 51.942 51.942c29.681 0 51.942-22.261 51.942-51.942s-22.261-51.942-51.942-51.942z" />
<glyph unicode="&#xe906;" glyph-name="download-speed-5" d="M225.082 304.512l-64.309 27.208c-9.894 4.947-19.787 0-24.734-9.894s0-19.787 9.894-24.734l64.309-27.208c2.473 0 4.947-2.473 7.42-2.473 7.42 0 14.841 4.947 17.314 12.367 4.947 9.894 0 19.787-9.894 24.734zM512 678c-281.971 0-512-230.029-512-512s230.029-512 512-512 512 230.029 512 512-230.029 512-512 512zM512-308.899c-262.184 0-474.899 212.715-474.899 474.899s212.715 474.899 474.899 474.899 474.899-212.715 474.899-474.899-212.715-474.899-474.899-474.899zM220.135 166c0 9.894-7.42 19.787-19.787 19.787h-76.676c-9.894 0-19.787-7.42-19.787-19.787s7.42-19.787 19.787-19.787h76.676c9.894 0 19.787 9.894 19.787 19.787zM252.29 452.918c-7.42 7.42-19.787 7.42-27.208 0s-7.42-19.787 0-27.208l49.469-49.469c2.473-2.473 7.42-4.947 12.367-4.947s9.894 2.473 12.367 4.947c7.42 7.42 7.42 19.787 0 27.208l-46.995 49.469zM737.082 371.295c4.947 0 9.894 2.473 12.367 4.947l49.469 49.469c7.42 7.42 7.42 19.787 0 27.208s-19.787 7.42-27.208 0l-49.469-49.469c-7.42-7.42-7.42-19.787 0-27.208 4.947-2.473 9.894-4.947 14.841-4.947zM380.908 532.068c-4.947 9.894-14.841 14.841-24.734 9.894s-14.841-14.841-9.894-24.734l27.208-64.309c2.473-7.42 9.894-12.367 17.314-12.367 2.473 0 4.947 0 7.42 2.473 9.894 4.947 14.841 14.841 9.894 24.734l-27.208 64.309zM512 465.285c9.894 0 19.787 7.42 19.787 19.787v69.256c0 9.894-7.42 19.787-19.787 19.787s-17.314-9.894-17.314-19.787v-71.729c0-9.894 7.42-17.314 17.314-17.314zM625.778 443.024c2.473 0 4.947-2.473 7.42-2.473 7.42 0 14.841 4.947 17.314 12.367l27.208 64.309c4.947 9.894 0 19.787-9.894 24.734s-19.787 0-24.734-9.894l-27.208-64.309c-4.947-9.894 0-22.261 9.894-24.734zM789.024 279.778c2.473-7.42 9.894-12.367 17.314-12.367 2.473 0 4.947 0 7.42 2.473l64.309 27.208c9.894 4.947 14.841 14.841 9.894 24.734s-14.841 14.841-24.734 9.894l-64.309-27.208c-9.894-4.947-14.841-14.841-9.894-24.734zM900.329 183.314h-71.729c-9.894 0-19.787-7.42-19.787-19.787s7.42-19.787 19.787-19.787h71.729c9.894 0 19.787 7.42 19.787 19.787s-9.894 19.787-19.787 19.787zM878.068 34.908l-277.024 116.251c0 4.947 2.473 9.894 2.473 14.841 0 49.469-39.575 89.043-89.043 89.043s-89.043-39.575-89.043-89.043c0-49.469 39.575-89.043 89.043-89.043 29.681 0 56.889 14.841 74.203 39.575l277.024-116.251c2.473 0 4.947-2.473 7.42-2.473 7.42 0 14.841 4.947 17.314 12.367 0 9.894-4.947 19.787-12.367 24.734zM512 114.058c-29.681 0-51.942 22.261-51.942 51.942s22.261 51.942 51.942 51.942c29.681 0 51.942-22.261 51.942-51.942s-22.261-51.942-51.942-51.942zM212.715 62.116l-66.783-27.208c-9.894-4.947-14.841-14.841-9.894-24.734 2.473-7.42 9.894-12.367 17.314-12.367 2.473 0 4.947 0 7.42 2.473l64.309 27.208c9.894 4.947 14.841 14.841 9.894 24.734-2.473 9.894-14.841 12.367-22.261 9.894z" />
<glyph unicode="&#xe907;" glyph-name="longdistance-features" d="M198.4 569.2v0c-48 0-86.4-41.6-86.4-89.6s41.6-86.4 89.6-86.4c48 0 86.4 38.4 86.4 86.4-3.2 51.2-41.6 89.6-89.6 89.6zM198.4 428.4c-32 0-57.6 25.6-57.6 54.4s25.6 54.4 54.4 54.4c28.8 0 54.4-25.6 54.4-54.4 3.2-28.8-22.4-54.4-51.2-54.4zM899.2 249.2c-22.4 9.6-48 12.8-73.6 12.8h3.2c-108.8 0-198.4-86.4-198.4-195.2 0-19.2 3.2-35.2 6.4-54.4 3.2-6.4 3.2-12.8 6.4-19.2l6.4-12.8 51.2-96h-204.8v403.2h-179.2l57.6 108.8 6.4 12.8c41.6 102.4-9.6 214.4-108.8 256-22.4 9.6-48 12.8-73.6 12.8v0c-108.8 0-198.4-89.6-198.4-198.4 0-19.2 3.2-35.2 6.4-51.2 3.2-6.4 6.4-12.8 9.6-19.2l6.4-12.8 176-326.4 102.4 188.8h166.4v-400h252.8l108.8-198.4 176 329.6 6.4 12.8c38.4 92.8-9.6 208-112 246.4zM198.4 134l-150.4 275.2-3.2 12.8c-3.2 3.2-6.4 9.6-6.4 16-25.6 86.4 25.6 176 115.2 201.6 12.8 3.2 28.8 6.4 44.8 6.4v0c89.6 0 166.4-73.6 166.4-163.2 0-16-3.2-28.8-6.4-44.8-3.2-6.4-6.4-12.8-6.4-16l-3.2-12.8-150.4-275.2zM985.6 22c0-6.4-3.2-9.6-6.4-16l-6.4-9.6-147.2-275.2-147.2 272-6.4 12.8c-3.2 6.4-3.2 9.6-3.2 16-25.6 86.4 28.8 179.2 115.2 201.6 12.8 3.2 28.8 6.4 44.8 6.4 89.6 0 163.2-73.6 166.4-163.2-3.2-12.8-3.2-28.8-9.6-44.8zM825.6 156.4c-48 0-86.4-38.4-86.4-86.4s38.4-86.4 86.4-86.4c48 0 86.4 38.4 86.4 86.4s-35.2 86.4-86.4 86.4zM825.6 15.6c-28.8 0-54.4 25.6-54.4 54.4s25.6 54.4 54.4 54.4c28.8 0 54.4-25.6 54.4-54.4s-22.4-54.4-54.4-54.4z" />
<glyph unicode="&#xe908;" glyph-name="wireless-connection" d="M509.232 392.941c-91.33 0-163.286-74.724-163.286-163.286 0-83.027 63.654-152.216 143.914-163.286v-312.735c0-11.070 8.303-22.141 22.141-22.141s22.141 8.303 22.141 22.141v312.735c80.259 11.070 143.914 80.259 143.914 163.286-5.535 88.562-77.492 163.286-168.822 163.286zM509.232 107.881c-66.422 0-121.773 55.351-121.773 121.773s55.351 121.773 121.773 121.773 121.773-55.351 121.773-121.773c0-69.189-55.351-121.773-121.773-121.773zM307.2 434.454l-30.443 27.676c-130.076-130.076-127.308-337.643 0-467.719 2.768-2.768 8.303-5.535 13.838-5.535s11.070 2.768 13.838 5.535c8.303 8.303 8.303 22.141 0 30.443-110.703 110.703-110.703 296.13 2.768 409.6zM744.476 459.362c-8.303 8.303-22.141 8.303-30.443 0s-8.303-22.141 0-30.443c110.703-110.703 110.703-293.362 0-406.832-8.303-8.303-8.303-22.141 0-30.443 2.768-2.768 8.303-5.535 13.838-5.535s11.070 2.768 13.838 5.535c130.076 132.843 130.076 340.411 2.768 467.719zM869.016 589.438c-8.303 8.303-22.141 8.303-30.443 0s-8.303-22.141 0-30.443c182.659-182.659 182.659-478.789 0-661.449-8.303-8.303-8.303-22.141 0-30.443 2.768-2.768 8.303-5.535 13.838-5.535s11.070 2.768 13.838 5.535c199.265 202.032 199.265 523.070 2.768 722.335zM179.892 558.995l-30.443 30.443c-199.265-199.265-196.497-523.070 2.768-719.568 2.768-2.768 8.303-5.535 13.838-5.535s11.070 2.768 13.838 5.535c8.303 8.303 8.303 22.141 0 30.443-182.659 179.892-185.427 476.022 0 658.681z" />
<glyph unicode="&#xe909;" glyph-name="clock" horiz-adv-x="1026" d="M509.858 678c-280.636 0-509.858-229.222-509.858-509.858s229.222-509.858 509.858-509.858 509.858 229.222 509.858 509.858c0 280.636-227.079 509.858-509.858 509.858zM509.858-303.155c-259.213 0-471.297 212.084-471.297 471.297s212.084 471.297 471.297 471.297 471.297-212.084 471.297-471.297c0-261.356-209.941-471.297-471.297-471.297zM681.238 247.406l-173.523-145.674-2.142 353.473c0 10.711-8.569 19.28-19.28 19.28 0 0 0 0 0 0-10.711 0-19.28-8.569-19.28-19.28l2.142-434.879 235.649 199.23c8.569 6.427 8.569 19.28 2.142 27.849-4.285 4.285-17.138 6.427-25.707 0z" />
<glyph unicode="&#xe90a;" glyph-name="storage-nopad" horiz-adv-x="1703" d="M1693.459 371.123c0 4.77 0 4.77 0 9.541 0 0 0 0 0 4.77s-4.77 9.541-4.77 9.541l-271.908 271.908c-14.311 4.77-23.851 9.541-28.622 9.541h-1082.861c-9.541 0-19.081-4.77-28.622-9.541l-271.908-271.908c0-4.77-4.77-9.541-4.77-9.541s0 0 0-4.77 0-4.77 0-9.541c0 0 0 0 0 0v-677.385c0-19.081 14.311-38.162 38.162-38.162h1626.677c19.081 0 38.162 14.311 38.162 38.162l-9.541 677.385c0 0 0 0 0 0zM319.609 604.868h1054.239l195.583-200.353h-319.611c-19.081 0-38.162-14.311-38.162-38.162v-162.191h-739.398v162.191c0 23.851-14.311 38.162-33.392 38.162h-319.611l200.353 200.353zM1621.904-272.868h-1555.122v605.83h333.922v-162.191c0-19.081 14.311-38.162 38.162-38.162h815.723c19.081 0 38.162 14.311 38.162 38.162v162.191h333.922v-605.83z" />
<glyph unicode="&#xe90b;" glyph-name="existing-customer-nopad" horiz-adv-x="920" d="M787.692 39.273h-5.082c-78.769 17.787-160.079 38.114-177.866 76.228-7.623 15.246-5.082 33.032 10.164 58.442 91.474 172.784 109.261 325.241 48.278 424.337-40.655 68.605-114.342 106.72-203.275 106.72s-162.62-38.114-203.275-106.72c-60.983-101.638-43.196-251.553 50.819-421.797 12.705-22.868 15.246-43.196 10.164-58.442-17.787-38.114-99.097-55.901-175.325-73.687l-7.623-2.541c-137.211-33.032-134.67-198.194-134.67-317.618v-25.409c0-10.164 7.623-20.328 20.328-20.328s20.328 7.623 20.328 20.328v25.409c0 114.342-2.541 254.094 101.638 276.963l7.623 2.541c91.474 20.328 177.866 40.655 203.275 96.556 12.705 25.409 7.623 55.901-10.164 91.474-88.933 160.079-106.72 297.29-55.901 386.223 33.032 58.442 94.015 88.933 172.784 88.933 76.228 0 137.211-30.491 170.243-86.392 53.36-88.933 35.573-226.144-50.819-386.223-17.787-35.573-22.868-66.065-10.164-91.474 25.409-55.901 111.801-76.228 205.816-96.556h5.082c104.179-22.868 101.638-165.161 101.638-276.963v-25.409c0-10.164 7.623-20.328 20.328-20.328s20.328 7.623 20.328 20.328v25.409c-2.541 114.342 0 279.504-134.67 309.995zM416.715-250.395l-45.737 45.737-33.032-33.032 60.983-60.983c5.082-5.082 10.164-7.623 17.787-7.623s12.705 2.541 17.787 7.623l147.375 147.375-33.032 33.032-132.129-132.129z" />
<glyph unicode="&#xe90c;" glyph-name="online-store-nopad" horiz-adv-x="1180" d="M1157.659 676.261h-1135.324c-12.756 0-22.324-9.567-22.324-22.324v-975.869c0-12.756 9.567-22.324 22.324-22.324h1135.324c12.756 0 22.324 9.567 22.324 22.324v975.869c0 12.756-9.567 22.324-22.324 22.324zM1135.336 628.425v-197.725h-1087.488v197.725h1087.488zM47.848-299.608v685.659h1087.488v-685.659h-1087.488zM315.734 548.697h730.307v-47.836h-730.307v47.836zM220.061 548.697h47.836v-47.836h-47.836v47.836zM127.576 548.697h47.836v-47.836h-47.836v47.836zM870.64 169.192h-424.152l-31.891 133.942c0 3.189-3.189 6.378-6.378 6.378h-95.673c-3.189 0-9.567-3.189-9.567-9.567v-19.134c0-3.189 3.189-9.567 9.567-9.567h73.35l95.673-389.072c-22.324-9.567-35.080-28.702-35.080-54.215 3.189-31.891 31.891-57.404 63.783-54.215 28.702 3.189 51.025 25.513 54.215 54.215 0 6.378 0 15.945-3.189 22.324h114.808c-6.378 0-6.378-9.567-6.378-15.945 0-15.945 6.378-31.891 15.945-41.458 9.567-12.756 25.513-19.134 41.458-19.134 0 0 0 0 3.189 0 15.945 0 28.702 6.378 41.458 15.945s19.134 25.513 19.134 41.458-6.378 31.891-15.945 41.458c-9.567 12.756-25.513 19.134-44.647 19.134h-213.67l-6.378 25.513h277.453c3.189 0 6.378 3.189 6.378 6.378l82.917 239.183c0 3.189 0 6.378 0 6.378s-3.189 0-6.378 0zM704.806-168.853c0 12.756 9.567 25.513 22.324 25.513 0 0 0 0 0 0 12.756 0 22.324-9.567 22.324-22.324 0-6.378-3.189-12.756-6.378-15.945-3.189-6.378-9.567-6.378-15.945-9.567-12.756 0-22.324 9.567-22.324 22.324zM487.946-184.799c-3.189 3.189-6.378 9.567-9.567 15.945s3.189 12.756 6.378 15.945c3.189 6.378 9.567 6.378 19.134 9.567 0 0 0 0 0 0 12.756 0 22.324-9.567 22.324-22.324 0-6.378-3.189-12.756-6.378-15.945-3.189-6.378-9.567-6.378-15.945-9.567-6.378 0-12.756 0-15.945 6.378zM500.703-47.667l-44.647 184.969h376.316l-63.783-181.78-267.886-3.189z" />
<glyph unicode="&#xe90d;" glyph-name="stress-free-nopad" d="M512 705c-282.292 0-512-229.708-512-512s229.708-512 512-512 512 229.708 512 512-226.941 512-512 512zM512-280.253c-260.151 0-470.486 210.335-470.486 470.486s210.335 470.486 470.486 470.486 470.486-210.335 470.486-470.486-207.567-470.486-470.486-470.486zM691.892 51.854c-35.978-47.049-91.331-77.492-149.449-83.027-60.886-8.302-119.006 8.302-166.053 47.049-13.839 11.069-27.676 24.908-38.747 38.747-8.302 8.302-19.373 11.069-30.443 2.767-8.302-8.302-11.069-19.373-2.767-30.443 13.839-16.606 27.676-33.21 44.282-47.049 47.049-38.747 105.167-58.118 163.286-58.118 11.069 0 22.141 0 33.21 2.767 71.957 8.302 132.843 44.282 177.124 99.633 8.302 8.302 5.535 22.141-2.767 30.443s-22.141 8.302-27.676-2.767zM365.318 309.239c0-24.456-19.826-44.282-44.282-44.282s-44.282 19.826-44.282 44.282c0 24.456 19.826 44.282 44.282 44.282s44.282-19.826 44.282-44.282zM750.010 309.239c0-24.456-19.826-44.282-44.282-44.282s-44.282 19.826-44.282 44.282c0 24.456 19.826 44.282 44.282 44.282s44.282-19.826 44.282-44.282z" />
<glyph unicode="&#xe90e;" glyph-name="web-design-nopad" horiz-adv-x="1712" d="M1703.645-235.564v94.815c0 15.171-11.378 30.34-30.34 30.34h-151.704v743.351c0 0 0 3.792 0 3.792-7.586 37.926-41.718 68.266-75.852 60.681h-1175.706c-37.926 3.792-75.852-22.755-79.644-60.681 0 0 0-3.792 0-3.792v-743.351h-151.704c-15.171 0-30.34-11.378-30.34-30.34v-98.607c0 0 0 0 0 0 0-41.718 37.926-79.644 79.644-79.644h1536.004c41.718 0 79.644 34.134 79.644 83.438 0-3.792 0 0 0 0zM243.493 629.147c3.792 7.586 11.378 11.378 18.963 11.378h1183.291c7.586 0 15.171-3.792 18.963-11.378v-743.351h-1221.217v743.351zM1620.207-262.113h-1536.004c-15.171 0-22.755 11.378-22.755 26.548v68.266h1585.307v-68.266c0 0 0 0 0 0-3.792-18.963-11.378-26.548-26.548-26.548zM1074.074 564.673c-11.378 11.378-26.548 11.378-37.926 0l-72.060-72.060c0 0 0 0 0 0s0 0 0 0l-292.030-288.238c0 0 0 0 0-3.792 0 0-3.792-3.792-3.792-3.792s0-3.792 0-3.792c0 0 0 0 0 0l-56.889-185.838c-3.792-11.378 0-18.963 7.586-26.548 3.792-3.792 11.378-7.586 18.963-7.586 3.792 0 3.792 0 7.586 0l185.838 56.889c0 0 0 0 3.792 0 0 0 0 0 3.792 0 0 0 3.792 3.792 3.792 3.792s0 0 3.792 0l360.296 360.296c11.378 11.378 11.378 26.548 0 37.926l-132.74 132.74zM827.554 101.975l-26.548 53.097c-3.792 3.792-7.586 7.586-11.378 11.378l-49.304 26.548 242.726 242.726 87.23-91.022-242.726-242.726zM709.984 143.695l45.512-26.548 26.548-45.512-102.4-30.34 30.34 102.4zM1108.207 382.629l-87.23 91.022 34.134 34.134 87.23-91.022-34.134-34.134z" />
<glyph unicode="&#xe90f;" glyph-name="web-hosting-nopad" horiz-adv-x="1255" d="M1254.845 591.457c0 46.871-39.66 86.531-86.531 86.531h-1081.635c-46.871 0-86.531-39.66-86.531-86.531v-205.511c0-21.633 10.816-43.266 25.238-57.687-14.422-14.422-25.238-36.054-25.238-57.687v-205.511c0-21.633 10.816-43.266 25.238-57.687-14.422-14.422-25.238-36.054-25.238-57.687v-209.116c0-46.871 39.66-86.531 86.531-86.531h1081.635c46.871 0 86.531 39.66 86.531 86.531v205.511c0 21.633-10.816 43.266-25.238 57.687 14.422 14.422 25.238 36.054 25.238 57.687v205.511c0 21.633-10.816 43.266-25.238 57.687 14.422 14.422 25.238 36.054 25.238 57.687v209.116zM54.23 591.457c0 18.027 14.422 32.449 32.449 32.449h1081.635c18.027 0 32.449-14.422 32.449-32.449v-205.511c0-18.027-14.422-32.449-32.449-32.449h-1081.635c-18.027 0-32.449 14.422-32.449 32.449v205.511zM1200.763 65.060c0-18.027-14.422-32.449-32.449-32.449h-1081.635c-18.027 0-32.449 14.422-32.449 32.449v205.511c0 18.027 14.422 32.449 32.449 32.449h1081.635c18.027 0 32.449-14.422 32.449-32.449v-205.511zM1200.763-259.431c0-18.027-14.422-32.449-32.449-32.449h-1081.635c-18.027 0-32.449 14.422-32.449 32.449v205.511c0 18.027 14.422 32.449 32.449 32.449h1081.635c18.027 0 32.449-14.422 32.449-32.449v-205.511zM558.992 461.66h548.028c14.422 0 28.844 10.816 28.844 28.844s-10.816 28.844-28.844 28.844h-548.028c-14.422 0-28.844-10.816-28.844-28.844s14.422-28.844 28.844-28.844zM209.264 490.504c0-19.912-16.142-36.054-36.054-36.054s-36.054 16.142-36.054 36.054c0 19.912 16.142 36.054 36.054 36.054s36.054-16.142 36.054-36.054zM367.904 490.504c0-19.912-16.142-36.054-36.054-36.054s-36.054 16.142-36.054 36.054c0 19.912 16.142 36.054 36.054 36.054s36.054-16.142 36.054-36.054zM1107.022 191.251h-548.028c-14.422 0-28.844-10.816-28.844-28.844s10.816-28.844 28.844-28.844h548.028c14.422 0 28.844 10.816 28.844 28.844s-14.422 28.844-28.844 28.844zM209.264 166.013c0-19.912-16.142-36.054-36.054-36.054s-36.054 16.142-36.054 36.054c0 19.912 16.142 36.054 36.054 36.054s36.054-16.142 36.054-36.054zM367.904 166.013c0-19.912-16.142-36.054-36.054-36.054s-36.054 16.142-36.054 36.054c0 19.912 16.142 36.054 36.054 36.054s36.054-16.142 36.054-36.054zM1107.022-129.634h-548.028c-14.422 0-28.844-10.816-28.844-28.844s10.816-28.844 28.844-28.844h548.028c14.422 0 28.844 10.816 28.844 28.844s-14.422 28.844-28.844 28.844zM209.264-158.478c0-19.912-16.142-36.054-36.054-36.054s-36.054 16.142-36.054 36.054c0 19.912 16.142 36.054 36.054 36.054s36.054-16.142 36.054-36.054zM367.904-158.478c0-19.912-16.142-36.054-36.054-36.054s-36.054 16.142-36.054 36.054c0 19.912 16.142 36.054 36.054 36.054s36.054-16.142 36.054-36.054z" />
<glyph unicode="&#xe910;" glyph-name="installation-nopad" horiz-adv-x="912" d="M888.571 670.176c-12.961 0-23.33-10.369-23.33-23.33v-108.873c-202.194 189.233-518.447 186.641-715.457-7.777-199.602-199.602-199.602-523.631 0-725.826 95.912-95.912 225.525-150.349 362.913-150.349 0 0 0 0 0 0 137.388 0 264.407 51.845 362.913 150.349 7.777 7.777 7.777 18.146 0 25.922s-20.738 7.777-28.515 0c-88.135-88.135-207.379-137.388-334.398-137.388 0 0 0 0 0 0-127.019 0-246.263 49.253-334.398 139.98-184.049 184.049-184.049 484.748 0 668.796s479.563 184.049 666.204 2.592h-121.835c-12.961-2.592-23.33-12.961-20.738-25.922 0-10.369 10.369-20.738 20.738-20.738h165.903c12.961 0 23.33 10.369 23.33 23.33v165.903c0 12.961-10.369 23.33-23.33 23.33z" />
<glyph unicode="&#xe911;" glyph-name="alarm-nopad" horiz-adv-x="995" d="M993.833-173.767c-11.667 23.332-23.332 46.665-34.999 72.913-43.748 90.413-96.246 192.492-113.745 338.318-5.833 49.581-8.749 90.413-11.667 125.411-5.833 99.162-8.749 154.576-78.746 224.573-32.082 34.999-107.912 90.413-256.655 90.413s-227.49-55.414-259.572-90.413c-69.997-72.913-72.913-125.411-78.746-224.573-2.916-34.999-5.833-75.83-11.667-125.411-17.499-145.827-67.081-247.906-110.828-335.402-11.667-26.248-26.248-49.581-34.999-75.83-2.916-5.833-2.916-14.583 0-20.416s11.667-8.749 17.499-8.749h312.070c11.667-81.663 78.746-142.911 163.326-142.911s154.576 64.164 163.326 142.911h312.070c8.749 0 14.583 2.916 17.499 8.749 5.833 5.833 8.749 14.583 5.833 20.416zM498.022-305.011c-61.247 0-110.828 43.748-119.579 99.162h239.156c-11.667-55.414-61.247-99.162-119.579-99.162zM54.708-159.184c5.833 14.583 14.583 29.166 20.416 43.748 46.665 90.413 96.246 195.408 116.661 349.984 5.833 52.498 8.749 93.329 11.667 128.328 5.833 96.246 8.749 137.077 67.081 198.325 26.248 29.166 93.329 75.83 227.49 75.83s198.325-46.665 227.49-75.83c58.331-61.247 61.247-102.079 67.081-198.325 2.916-34.999 5.833-75.83 11.667-128.328 17.499-154.576 69.997-259.572 116.661-352.901 5.833-14.583 11.667-26.248 20.416-37.915h-886.627z" />
<glyph unicode="&#xe912;" glyph-name="email-account-nopad" horiz-adv-x="1582" d="M1413.635 162.367v486.548c0 14.524-10.892 29.048-29.048 29.048h-1350.718c-18.155-3.631-29.048-14.524-29.048-29.048v-853.276c0-14.524 10.892-29.048 29.048-29.048h1067.503c47.203-68.988 127.083-112.56 214.227-112.56 145.238 0 261.429 116.191 261.429 261.429 3.631 112.56-65.357 206.964-163.393 246.906zM1315.599 180.522c-79.881 0-148.869-36.309-196.072-90.774l-137.977 137.977 377.62 381.25c0 0 0 0 0 0v-432.084c-14.524 3.631-29.048 3.631-43.572 3.631zM59.287 605.345l377.62-377.62-377.62-381.25v758.871zM121.013 619.868h1172.8l-588.216-584.585-584.585 584.585zM110.12-178.943l366.727 366.727 210.595-210.595c3.631-3.631 10.892-7.262 18.155-7.262s14.524 3.631 18.155 7.262l214.227 214.227 145.238-145.238c-21.786-36.309-32.678-79.881-32.678-127.083 0-32.678 7.262-65.357 18.155-94.405h-958.574zM1315.599-291.503c-116.191 0-206.964 94.405-206.964 206.964s94.405 206.964 206.964 206.964 206.964-94.405 206.964-206.964-90.774-206.964-206.964-206.964zM1413.635-106.324c-10.892 3.631-43.572 7.262-47.203 14.524 0 0 0 3.631 3.631 7.262 29.048 54.464 36.309 105.298 14.524 137.977-14.524 25.417-39.94 36.309-72.62 36.309-29.048 0-54.464-14.524-68.988-36.309-10.892-18.155-25.417-65.357 14.524-137.977 3.631-3.631 3.631-7.262 3.631-7.262-3.631-7.262-29.048-10.892-43.572-14.524h-3.631c-50.834-10.892-50.834-47.203-50.834-83.512h36.309c0 36.309 0 39.94 21.786 47.203h3.631c29.048 7.262 58.095 14.524 65.357 36.309 3.631 10.892 3.631 25.417-3.631 39.94-21.786 43.572-29.048 79.881-14.524 101.667 7.262 14.524 21.786 21.786 39.94 21.786s32.678-7.262 39.94-18.155c14.524-21.786 7.262-58.095-14.524-101.667-7.262-14.524-7.262-29.048-3.631-39.94 10.892-21.786 39.94-29.048 72.62-36.309 21.786-3.631 21.786-7.262 21.786-39.94v-7.262c0-10.892 7.262-18.155 18.155-18.155s18.155 7.262 18.155 18.155v7.262c0 29.048 0 61.726-50.834 72.62z" />
<glyph unicode="&#xe913;" glyph-name="move-nopad" horiz-adv-x="1065" d="M913.467 20.368l-466.573-219.109c-10.311-5.156-12.889-15.466-10.311-25.777 2.577-7.733 10.311-10.311 18.044-10.311 2.577 0 5.156 0 7.733 2.577l466.573 219.109c10.311 5.156 12.889 15.466 10.311 25.777-5.156 7.733-18.044 12.889-25.777 7.733zM1062.976 164.722l-237.154 502.661c0 5.156-5.156 7.733-10.311 10.311-5.156 0-10.311 0-15.466-2.577l-788.793-371.197c-10.311-5.156-12.889-15.466-10.311-25.777l237.154-502.661c2.577-5.156 5.156-7.733 10.311-10.311 2.577 0 5.156 0 7.733 0s5.156 0 7.733 2.577l788.793 371.197c10.311 5.156 15.466 15.466 10.311 25.777zM266.451-188.43l-221.687 466.573 755.281 355.73 219.109-466.573-752.704-355.73zM787.157-327.629c0-9.966-93.482-18.044-208.798-18.044s-208.798 8.079-208.798 18.044c0 9.966 93.482 18.044 208.798 18.044s208.798-8.079 208.798-18.044z" />
<glyph unicode="&#xe914;" glyph-name="protection-nopad" horiz-adv-x="847" d="M846.455 528.092c0 27.709-22.671 50.379-50.379 50.379v0c-216.629-2.519-327.464 78.087-340.059 88.163 0 0 0 0 0 0-17.632 15.114-45.341 15.114-65.492 0 0-2.519-113.353-90.682-340.059-90.682 0 0 0 0 0 0-27.709 0-50.379-22.671-50.379-50.379v-2.519c0-120.91 12.595-725.457 405.551-866.519 5.038-2.519 10.076-2.519 17.632-2.519 5.038 0 12.595 0 17.632 2.519 413.107 146.099 408.070 795.988 405.551 871.557zM428.309-305.679c-2.519 0-5.038 0-7.557 0-370.286 130.986-382.88 712.862-382.88 828.734v2.519c0 7.557 5.038 12.595 12.595 12.595v0c241.819 0 360.21 93.201 365.247 98.24s12.595 5.038 17.632 0c20.151-15.114 138.542-95.72 362.729-95.72 7.557 0 12.595-5.038 12.595-12.595 0 0 0 0 0 0 2.519-30.227 15.114-695.23-380.361-833.772z" />
<glyph unicode="&#xe915;" glyph-name="restart-nopad" horiz-adv-x="955" d="M354.629 345.193c-5.12-2.56-10.239-10.239-10.239-17.919v-399.342c0-7.68 2.56-12.799 10.239-17.919 2.56-2.56 5.12-2.56 10.239-2.56 2.56 0 7.68 0 10.239 2.56l340.465 199.671c5.12 2.56 10.239 10.239 10.239 15.359s-2.56 12.799-10.239 15.359l-343.025 199.671c-2.56 10.239-10.239 10.239-17.919 5.12zM385.348 296.554l284.147-166.392-284.147-166.392v332.785zM797.49 483.426c-7.68 7.68-20.479 7.68-28.159-2.56-7.68-7.68-7.68-20.479 2.56-28.159 138.234-125.434 181.752-322.546 110.075-494.058-46.078-107.515-130.554-191.992-238.069-235.51s-227.83-43.518-335.345 2.56c-107.515 46.078-191.992 130.554-235.51 238.069-43.518 110.075-43.518 227.83 2.56 335.345s130.554 191.992 238.069 235.51c97.276 38.398 202.231 43.518 299.507 10.239l-76.797-46.078c-10.239-5.12-12.799-17.919-7.68-25.599 2.56-5.12 10.239-10.239 15.359-10.239 2.56 0 7.68 0 10.239 2.56l99.836 61.438c0 0 0 0 0 0s0 0 0 0l7.68 5.12c2.56 2.56 5.12 5.12 7.68 10.239 0 0 0 0 0 2.56 2.56 7.68 0 17.919-7.68 23.039l-61.438 99.836c-5.12 10.239-17.919 12.799-25.599 7.68s-12.799-17.919-7.68-25.599l35.838-58.877c-102.396 28.159-209.911 23.039-309.747-17.919-112.635-51.197-204.791-140.794-253.429-258.548s-51.197-245.749-2.56-363.504c48.637-117.755 138.234-209.911 255.988-258.548 58.877-25.599 122.874-38.398 184.312-38.398s122.874 12.799 179.193 35.838c117.755 48.637 209.911 138.234 258.548 255.988 79.357 186.872 30.718 401.902-117.755 537.577z" />
<glyph unicode="&#xe916;" glyph-name="transfer-nopad" horiz-adv-x="1059" d="M649.297 344.481c0 0 0 0 0 0-3.195-9.584 3.195-22.362 15.973-22.362 9.584 0 19.167 6.389 22.362 15.973l70.28 316.259c0 3.195 0 6.389 0 9.584-3.195 9.584-12.778 15.973-22.362 12.778l-316.259-70.28c0 0 0 0-3.195 0-9.584-3.195-15.973-12.778-12.778-22.362s12.778-15.973 22.362-12.778l245.98 54.307-664.464-667.659c-9.584-9.584-9.584-25.556 0-35.14 3.195-3.195 9.584-6.389 15.973-6.389s12.778 3.195 15.973 6.389l664.464 664.464-54.307-242.785zM1051.809 405.177c-9.584 9.584-25.556 9.584-35.14 0l-661.27-664.464 54.307 245.98c3.195 9.584 0 22.362-9.584 25.556s-22.362 0-25.556-9.584c0-3.195-3.195-6.389-3.195-9.584l-70.28-316.259c-3.195-9.584 3.195-19.167 12.778-22.362 3.195 0 6.389 0 9.584 0l316.259 70.28c9.584 3.195 15.973 12.778 12.778 22.362s-12.778 15.973-22.362 15.973c0 0 0 0 0 0l-242.785-54.307 664.464 664.464c9.584 6.389 9.584 22.362 0 31.945z" />
<glyph unicode="&#xe917;" glyph-name="voicemail-nopad" horiz-adv-x="2523" d="M2011.098 686.916c-282.076 0-511.916-229.84-511.916-511.916 0-182.827 94.026-344.759 240.287-433.562h-955.925c146.262 88.801 240.287 250.735 240.287 433.562 0 282.076-229.84 511.916-511.916 511.916s-511.916-229.84-511.916-511.916c0-282.076 229.84-511.916 511.916-511.916h1499.182c282.076 0 511.916 229.84 511.916 511.916s-229.84 511.916-511.916 511.916zM78.354 175c0 240.287 193.274 433.562 433.562 433.562s433.562-193.274 433.562-433.562c0-240.287-193.274-433.562-433.562-433.562s-433.562 193.274-433.562 433.562zM2011.098-258.562c-240.287 0-433.562 193.274-433.562 433.562s193.274 433.562 433.562 433.562 433.562-193.274 433.562-433.562c0-240.287-193.274-433.562-433.562-433.562z" />
<glyph unicode="&#xe918;" glyph-name="call-forwarding-nopad" horiz-adv-x="1046" d="M1029.192 59.032l-2.712 2.712c-65.099 40.687-105.786 67.812-135.624 86.799-16.275 10.85-27.125 18.987-35.262 24.413-21.699 16.275-51.537 13.562-70.525-5.425 0 0-54.25-62.387-70.525-78.661-10.85-8.138-24.413-10.85-35.262-2.712v0c-70.525 35.262-173.599 105.786-265.823 244.122-5.425 0-5.425 2.712-5.425 2.712-2.712 5.425-5.425 10.85-5.425 16.275 21.699 32.549 48.824 62.387 81.374 89.512 16.275 16.275 18.987 40.687 5.425 62.387-43.4 59.674-89.512 116.637-138.336 170.885l-2.712 2.712c-18.987 16.275-46.112 16.275-67.812 0-130.199-111.211-146.474-200.723-146.474-200.723-5.425-21.699-5.425-46.112 0-70.525 157.323-469.257 621.156-580.469 623.868-580.469 5.425-2.712 29.837-8.138 54.25-8.138 16.275 0 29.837 2.712 43.4 8.138 73.237 40.687 138.336 100.362 184.448 173.599l2.712 5.425c5.425 18.987 0 40.687-13.562 56.962zM833.894-138.979c-10.85-8.138-46.112-2.712-65.099 2.712-5.425 0-444.846 105.786-594.032 553.344-5.425 16.275-5.425 32.549 0 48.824 0 0 16.275 78.661 130.199 176.311 2.712 2.712 5.425 2.712 8.138 2.712s5.425 0 8.138-2.712c48.824-51.537 92.224-108.499 132.911-162.748 2.712-2.712 2.712-8.138 0-10.85-35.262-27.125-65.099-62.387-89.512-100.362l-2.712-5.425c-5.425-18.987 0-37.975 10.85-54.25l2.712-5.425c97.648-143.761 206.148-219.711 282.097-257.685 27.125-16.275 59.674-13.562 84.087 8.138 18.987 18.987 70.525 81.374 70.525 81.374 5.425 5.425 10.85 5.425 18.987 0s21.699-13.562 35.262-24.413 70.525-46.112 132.911-86.799c2.712-2.712 2.712-5.425 2.712-10.85-40.687-59.674-97.648-113.924-168.173-151.898zM749.808 389.953h189.873c10.85 0 21.699 8.138 21.699 21.699s-10.85 18.987-21.699 18.987h-141.048l219.711 219.711c8.138 8.138 8.138 21.699 0 29.837s-21.699 8.138-29.837 0l-219.711-219.711v141.048c0 10.85-8.138 21.699-21.699 21.699s-21.699-8.138-21.699-21.699v-189.873c2.712-10.85 13.562-21.699 24.413-21.699zM261.562-46.755l-219.711-219.711v141.048c0 10.85-8.138 21.699-21.699 21.699s-18.987-10.85-18.987-21.699v-189.873c0-10.85 8.138-21.699 21.699-21.699h189.873c10.85 0 21.699 8.138 21.699 21.699s-8.138 21.699-21.699 21.699h-141.048l219.711 219.711c8.138 8.138 8.138 21.699 0 29.837s-21.699 5.425-29.837-2.712z" />
<glyph unicode="&#xe919;" glyph-name="speed-range" horiz-adv-x="296" d="M297.774-201.607c-102.828 55.699-177.808 203.515-177.808 385.607s77.121 340.619 179.95 398.46v113.54c-74.979-21.423-141.389-74.979-194.946-152.1-66.41-96.402-102.828-224.937-102.828-359.9s36.418-263.498 102.828-359.9c53.556-77.121 119.967-130.678 194.946-152.1v126.393z" />
<glyph unicode="&#xe91a;" glyph-name="most-popular-speed" horiz-adv-x="891" d="M636.251 181.858c-42.845 0-81.406-10.711-117.824-27.849l-428.452 541.992-89.975-70.695 430.594-544.134c-32.134-42.845-51.414-94.259-51.414-152.1 0-141.389 113.54-254.929 254.929-254.929s257.071 111.397 257.071 252.787c0 141.389-113.54 254.929-254.929 254.929z" />
<glyph unicode="&#xe91b;" glyph-name="calendar31" horiz-adv-x="907" d="M397.935 210.199c31.752 18.522 50.274 42.336 50.274 71.442 0 21.168-7.938 39.69-23.814 55.566-18.522 21.168-44.981 31.752-76.734 31.752-18.522 0-34.398-2.646-50.274-10.584s-26.459-15.876-34.398-29.106c-7.938-13.23-15.876-29.106-18.522-50.274l60.858-10.584c2.646 15.876 5.292 26.459 13.23 34.398s18.522 10.584 29.106 10.584c10.584 0 21.168-2.646 26.459-10.584s10.584-15.876 10.584-26.459c0-13.23-5.292-23.814-13.23-31.752-10.584-7.938-23.814-13.23-39.69-10.584l-7.938-52.92c10.584 2.646 21.168 5.292 29.106 5.292 13.23 0 23.814-5.292 31.752-13.23s13.23-23.814 13.23-39.69c0-18.522-5.292-31.752-13.23-42.336s-21.168-15.876-34.398-15.876c-13.23 0-23.814 5.292-31.752 13.23s-13.23 21.168-15.876 37.044l-63.503-7.938c2.646-29.106 15.876-52.92 34.398-68.796 21.168-18.522 44.981-26.459 76.734-26.459s60.858 10.584 82.025 31.752 31.752 47.628 31.752 76.734c0 21.168-5.292 37.044-18.522 52.92s-26.459 21.168-47.628 26.459zM577.863 313.393c-21.168-15.876-39.69-26.459-55.566-31.752v-58.212c31.752 10.584 60.858 26.459 84.672 50.274v-246.077h66.15v341.333h-52.92c-10.584-21.168-23.814-39.69-42.336-55.566zM720.746 615.036v55.566c0 18.522-15.876 34.398-34.398 34.398s-34.398-15.876-34.398-34.398v-55.566h-399.544v55.566c0 18.522-15.876 34.398-34.398 34.398s-31.752-15.876-31.752-34.398v-55.566h-185.219v-807.027h767.337l97.901 97.901v-182.574h-844.071c-10.584 0-21.168-7.938-21.168-21.168s7.938-21.168 21.168-21.168h883.761v934.035h-185.219zM866.276 472.152v-508.030l-113.778-113.778h-711.772v725.002h145.53v-55.566c0-18.522 15.876-34.398 34.398-34.398s31.752 15.876 31.752 34.398v55.566h402.191v-55.566c0-18.522 15.876-34.398 34.398-34.398s34.398 15.876 34.398 34.398v55.566h145.53v-103.194z" />
<glyph unicode="&#xe91c;" glyph-name="album-star" d="M651.87 430.393c-48.762 0-89.824-41.063-89.824-89.824s41.063-89.824 89.824-89.824 89.824 41.063 89.824 89.824c0 51.329-41.063 89.824-89.824 89.824zM651.87 289.24c-28.231 0-51.329 23.098-51.329 51.329s23.098 51.329 51.329 51.329 51.329-23.098 51.329-51.329-23.098-51.329-51.329-51.329zM885.414 551.015l-48.762 138.586-51.329-138.586-38.496-12.832h-728.862c-10.266 0-17.965-7.699-17.965-17.965v-805.854c0-10.266 7.699-17.965 17.965-17.965h839.218c10.266 0 17.965 7.699 17.965 17.965v718.596l7.699 20.531 141.153 46.196-138.586 51.329zM38.498 19.767l238.677 238.677 223.278-223.278c7.699-7.699 20.531-7.699 25.664 0l105.223 105.223 195.048-195.048h-787.889v74.426zM839.219-270.237h-800.721v177.083h803.288v-177.083zM839.219-16.163l-195.048 195.048c-7.699 7.699-20.531 7.699-25.664 0l-105.223-105.223-223.278 223.278c-7.699 7.699-17.965 7.699-25.664 0l-225.845-225.845v428.591h613.373l133.453-48.762 48.762-138.586 5.133 12.832v-341.333z" />
<glyph unicode="&#xe91d;" glyph-name="modem-nopad" horiz-adv-x="1278" d="M935.572 455.94h-840.797c-51.977 0-94.781-42.804-94.781-94.781v-513.65c0-51.977 42.804-94.781 94.781-94.781h42.804v-27.517c0-24.46 18.344-42.804 42.804-42.804h180.389c24.46 0 42.804 18.344 42.804 42.804v27.517h220.136v-27.517c0-24.46 18.344-42.804 42.804-42.804h180.389c24.46 0 42.804 18.344 42.804 42.804v27.517h42.804c51.977 0 94.781 42.804 94.781 94.781v513.65c3.058 51.977-39.746 94.781-91.723 94.781zM360.772-271.731h-174.274v24.46h174.274v-24.46zM846.906-271.731h-174.274v24.46h174.274v-24.46zM993.663-152.491c0-30.575-24.46-58.091-58.091-58.091h-840.797c-30.575 0-58.091 24.46-58.091 58.091v513.65c0 30.575 24.46 58.091 58.091 58.091h840.797c30.575 0 58.091-24.46 58.091-58.091v-513.65zM883.595 79.875c-27.517 0-51.977-21.402-51.977-51.977s21.402-51.977 51.977-51.977 51.977 21.402 51.977 51.977-21.402 51.977-51.977 51.977zM883.595 9.554c-12.229 0-21.402 9.173-21.402 21.402s9.173 21.402 21.402 21.402 21.402-9.173 21.402-21.402-9.173-21.402-21.402-21.402zM883.595 217.46c-27.517 0-51.977-21.402-51.977-51.977s21.402-51.977 51.977-51.977 51.977 21.402 51.977 51.977-21.402 51.977-51.977 51.977zM883.595 147.138c-12.229 0-21.402 9.173-21.402 21.402s9.173 21.402 21.402 21.402 21.402-9.173 21.402-21.402-9.173-21.402-21.402-21.402zM883.595 351.987c-27.517 0-51.977-21.402-51.977-51.977s21.402-51.977 51.977-51.977 51.977 21.402 51.977 51.977-21.402 51.977-51.977 51.977zM883.595 281.666c-12.229 0-21.402 9.173-21.402 21.402s9.173 21.402 21.402 21.402 21.402-9.173 21.402-21.402-9.173-21.402-21.402-21.402zM972.261 578.237c-12.229 0-21.402-12.229-21.402-24.46s12.229-21.402 24.46-21.402c33.632 3.058 67.264-12.229 91.723-36.689s36.689-58.091 36.689-91.723c0-12.229 9.173-24.46 21.402-24.46 0 0 0 0 0 0 12.229 0 21.402 9.173 21.402 21.402 3.058 45.862-15.287 91.723-48.919 125.356-30.575 36.689-76.436 55.034-125.356 51.977zM1186.282 617.985c-55.034 55.034-134.527 85.608-214.021 85.608-12.229 0-21.402-9.173-21.402-24.46 0-12.229 9.173-21.402 24.46-21.402 67.264 0 134.527-24.46 183.446-73.379s73.379-113.125 73.379-180.389c0-12.229 9.173-24.46 21.402-24.46 0 0 0 0 0 0 12.229 0 21.402 9.173 24.46 21.402-3.058 82.55-33.632 158.987-91.723 217.079z" />
<glyph unicode="&#xe91e;" glyph-name="security-software-nopad" horiz-adv-x="848" d="M846.525 553.388c0 0 0 0 0 0 0 27.34-22.369 49.709-49.709 49.709-228.66 0-340.505 89.476-340.505 89.476-19.883 14.913-44.738 14.913-64.621 0 0 0-111.845-89.476-340.505-89.476-27.34 0-49.709-22.369-49.709-49.709 0-29.825-17.398-720.777 407.612-872.388 4.971-2.485 9.942-2.485 17.398-2.485s12.427 0 17.398 2.485c420.039 149.126 402.641 842.563 402.641 872.388zM426.486-284.204c-2.485 0-4.971 0-7.456 0-397.67 141.67-382.757 807.767-382.757 835.107 0 7.456 4.971 12.427 12.427 12.427 246.058 0 362.874 96.932 365.359 96.932 2.485 2.485 4.971 2.485 7.456 2.485s7.456 0 9.942-2.485c4.971-4.971 124.272-96.932 365.359-96.932 7.456 0 12.427-4.971 12.427-12.427 0-27.34 17.398-693.437-382.757-835.107zM597.981 282.475l-4.971 12.427c27.34 59.65 27.34 64.621 17.398 74.563l-34.796 34.796c-9.942 9.942-12.427 9.942-74.563-17.398l-12.427 4.971c-24.854 62.136-27.34 64.621-42.252 64.621h-49.709c-14.913 0-17.398-4.971-39.767-64.621l-12.427-4.971c-62.136 27.34-67.107 24.854-77.049 17.398l-34.796-34.796c-9.942-9.942-9.942-14.913 17.398-74.563l-2.485-14.913c-62.136-24.854-64.621-27.34-64.621-42.252v-47.223c0-14.913 4.971-17.398 67.107-39.767l4.971-12.427c-27.34-59.65-27.34-64.621-17.398-74.563l34.796-34.796c9.942-9.942 14.913-9.942 74.563 17.398l12.427-4.971c24.854-62.136 29.825-64.621 42.252-64.621h49.709c14.913 0 17.398 4.971 39.767 64.621l12.427 4.971c62.136-27.34 67.107-24.854 74.563-17.398l34.796 34.796c9.942 9.942 9.942 14.913-17.398 74.563l4.971 12.427c62.136 24.854 64.621 27.34 64.621 42.252v47.223c0 14.913-4.971 19.883-67.107 42.252zM627.807 205.427c-9.942-4.971-32.311-12.427-49.709-19.883-4.971-2.485-7.456-4.971-9.942-9.942l-12.427-27.34c-2.485-4.971-2.485-9.942 0-14.913 7.456-17.398 17.398-34.796 19.883-47.223l-19.883-19.883c-12.427 4.971-32.311 12.427-49.709 19.883-4.971 2.485-9.942 2.485-14.913 0l-27.34-9.942c-4.971-2.485-7.456-4.971-9.942-9.942-7.456-17.398-14.913-37.282-19.883-47.223h-27.34c-4.971 9.942-12.427 29.825-19.883 47.223-2.485 4.971-4.971 7.456-9.942 9.942l-27.34 9.942c-4.971 2.485-9.942 2.485-14.913 0-17.398-7.456-37.282-17.398-47.223-19.883l-19.883 19.883c4.971 9.942 12.427 32.311 19.883 47.223 2.485 4.971 2.485 9.942 0 14.913l-12.427 27.34c-2.485 4.971-4.971 7.456-9.942 9.942-17.398 7.456-37.282 14.913-49.709 17.398v27.34c9.942 4.971 32.311 12.427 49.709 19.883 4.971 2.485 7.456 4.971 9.942 9.942l12.427 27.34c2.485 4.971 2.485 9.942 0 14.913-7.456 17.398-17.398 34.796-19.883 47.223l19.883 19.883c12.427-4.971 32.311-12.427 49.709-19.883 4.971-2.485 9.942-2.485 14.913 0l27.34 9.942c4.971 2.485 7.456 4.971 9.942 9.942 7.456 17.398 14.913 37.282 19.883 47.223h27.34c4.971-9.942 12.427-29.825 19.883-47.223 2.485-4.971 4.971-7.456 9.942-9.942l27.34-9.942c4.971-2.485 9.942-2.485 14.913 0 17.398 7.456 37.282 17.398 47.223 19.883l19.883-19.883c-4.971-9.942-12.427-32.311-19.883-47.223-2.485-4.971-2.485-9.942 0-14.913l12.427-27.34c2.485-4.971 4.971-7.456 9.942-9.942 17.398-7.456 37.282-14.913 49.709-17.398v-27.34zM424.001 304.844c-49.709 0-89.476-39.767-89.476-89.476s39.767-89.476 89.476-89.476 89.476 39.767 89.476 89.476c0 49.709-39.767 89.476-89.476 89.476zM424.001 165.66c-29.825 0-52.194 22.369-52.194 52.194 0 27.34 24.854 52.194 52.194 52.194 29.825 0 52.194-22.369 52.194-52.194s-24.854-52.194-52.194-52.194z" />
<glyph unicode="&#xe91f;" glyph-name="four-choice-nopad" d="M1.384 248.352h456.648v456.648h-456.648v-456.648zM42.898 663.486h373.622v-373.622h-373.622v373.622zM565.969 705v-456.648h456.648v456.648h-456.648zM978.336 289.864h-370.855v373.622h373.622v-373.622zM1.384-319h456.648v456.648h-456.648v-456.648zM42.898 96.136h373.622v-373.622h-373.622v373.622zM565.969-319h456.648v456.648h-456.648v-456.648zM607.481 96.136h373.622v-373.622h-373.622v373.622zM928.52 552.784l-35.978 35.978-143.914-143.914-44.281 44.281-35.978-35.978 80.259-80.259z" />
<glyph unicode="&#xe920;" glyph-name="memorycardsingle-nopad" d="M881.922 704.999h-481.281c-5.119 0-10.24-2.56-12.8-5.119l-261.121-253.44c-2.56-2.56-5.119-7.681-5.119-12.8v-732.161c0-10.24 7.681-20.479 20.479-20.479h739.84c10.24 0 20.479 7.681 20.479 20.479v983.042c-2.56 10.24-10.24 20.479-20.479 20.479zM861.441-280.602h-701.44v704.001l248.321 240.64h453.121v-944.641zM280.321 159.719v-294.4c0-10.24 7.681-20.479 20.479-20.479h424.961c10.24 0 20.479 7.681 20.479 20.479v294.4c0 10.24-7.681 20.479-20.479 20.479h-427.521c-10.24 0-17.919-10.24-17.919-20.479zM318.72-114.202v76.801h386.561v-76.801h-386.561zM561.921-1.562v140.8h51.201v-140.8h-51.201zM702.721-1.562h-53.76v140.8h53.76v-140.8zM523.521 141.797v-140.8h-204.801v140.8h204.801z" />
<glyph unicode="&#xe921;" glyph-name="memorycardtwo-nopad" d="M682.666 123.557v-270.713c0-9.417-7.063-18.831-18.831-18.831h-388.414c-9.417 0-18.831 7.063-18.831 18.831v270.713c0 9.417 7.063 18.831 18.831 18.831h390.769c9.417 0 16.478-7.063 16.478-18.831zM647.356-128.324v70.622h-353.105v-70.622h353.105zM647.356-22.394v129.471h-49.435v-129.471h49.435zM562.61-22.394v129.471h-47.081v-129.471h47.081zM482.574-22.394v129.471h-188.323v-129.471h188.323zM414.307 624.964h397.83c9.417 0 18.831-7.063 18.831-18.831v-807.431h49.435v870.99h-421.371l-44.726-44.726zM360.165 622.611l80.036 77.683c2.354 2.354 7.063 4.707 11.77 4.707h442.558c9.417 0 18.831-7.063 18.831-18.831v-903.947c0-9.417-7.063-18.831-18.831-18.831h-65.913v-63.559c0-9.417-7.063-18.831-18.831-18.831h-680.313c-9.417 0-18.831 7.063-18.831 18.831v675.606c0 4.707 2.354 9.417 4.707 11.77l237.757 233.048c4.707 0 4.707 2.354 7.063 2.354zM376.643 589.654v0l-181.26-174.199-49.435-47.081v-647.358h645.003v868.636h-414.308z" />
<glyph unicode="&#xe922;" glyph-name="memorycardthree-nopad" d="M845.965-146.491v763.025c0 11.058-8.847 17.693-17.693 17.693h-373.772l35.387 35.387h393.678v-816.105h-37.598zM403.63 632.017c0 0 0 0 0 0l-70.774-68.562c0 0 0 0 0 0s-2.211-2.211-2.211-2.211l-223.379-218.955c-2.211-2.211-4.423-6.636-4.423-11.058v-632.537c0-8.847 6.636-17.693 17.693-17.693h639.171c8.847 0 17.693 6.636 17.693 17.693v53.079h55.292c8.847 0 17.693 6.636 17.693 17.693v50.868h53.079c8.847 0 17.693 6.636 17.693 17.693v849.281c0 8.847-6.636 17.693-17.693 17.693h-420.217c-4.423 0-8.847-2.211-11.058-4.423l-68.562-68.562zM383.726 565.667l37.598 37.598h391.466v-818.317h-39.81v763.025c0 8.847-6.636 17.693-17.693 17.693h-371.561zM173.617 362.193l68.562 66.351 33.175 33.175 72.985 70.774h391.466v-818.317h-605.996v610.42l39.81 37.598zM602.681-42.543h-46.445v121.642h46.445v-121.642zM481.039-42.543v121.642h44.234v-121.642h-44.234zM275.354-142.068v66.351h327.327v-66.351h-327.327zM275.354 79.1h172.51v-121.642h-172.51v121.642zM635.857-146.491v243.283c0 8.847-6.636 17.693-17.693 17.693h-364.925c-4.423 0-8.847-2.211-11.058-4.423-4.423-2.211-6.636-6.636-6.636-13.27v-254.342c0-6.636 4.423-11.058 8.847-15.481 4.423-2.211 6.636-2.211 8.847-2.211h367.138c8.847 0 17.693 6.636 17.693 17.693v11.058z" />
<glyph unicode="&#xe923;" glyph-name="memorycardfour-nopad" d="M860.287-97.933v727.855c0 8.343-6.257 16.684-16.684 16.684h-350.371l27.112 27.112h369.142v-769.566h-29.198zM378.526 577.784c0 0 0 0 0 0l-66.738-64.652c0 0 0 0 0 0s-2.085-2.085-2.085-2.085l-210.641-206.469c-2.085-2.085-4.171-6.257-4.171-10.428v-596.467c0-8.343 6.257-16.684 16.684-16.684h602.723c8.343 0 16.684 6.257 16.684 16.684v50.053h52.139c8.343 0 16.684 6.257 16.684 16.684v47.967h50.053c8.343 0 16.684 6.257 16.684 16.684v43.797h45.882c8.343 0 16.684 6.257 16.684 16.684v798.763c0 8.343-6.257 16.684-16.684 16.684h-398.339c-4.171 0-8.343-2.085-10.428-4.171l-60.48-60.48-64.652-62.567zM359.757 515.217l35.454 35.454h369.142v-771.651h-37.539v719.513c0 8.343-6.257 16.684-16.684 16.684h-350.371zM831.089-97.933v-60.48h-35.454v721.6c0 10.428-8.343 16.684-16.684 16.684h-352.457l33.369 33.369h369.142v-711.172zM161.63 323.347l64.652 62.567 31.284 31.284 29.198 27.112 31.284 29.198 8.343 8.343h369.142v-771.651h-571.439v577.696l37.539 35.454zM566.226-58.308h-43.797v114.705h43.797v-114.705zM451.521-58.308v114.705h41.711v-114.705h-41.711zM566.226-97.933v-54.225h-308.66v62.567h308.66v-8.343zM257.566 56.397h162.672v-114.705h-162.672v114.705zM597.51-97.933v171.015c0 8.343-6.257 16.684-16.684 16.684h-344.114c-4.171 0-8.343-2.085-10.428-4.171-4.171-2.085-6.257-6.257-6.257-12.513v-239.838c0-6.257 4.171-10.428 8.343-14.598 4.171-2.085 6.257-2.085 8.343-2.085h346.201c8.343 0 16.684 6.257 16.684 16.684v68.823z" />
<glyph unicode="&#xe924;" glyph-name="wireless-connection-two-nopad" d="M585.379 514.878l100.067 100.067v-540.354c0-13.343 10.008-26.683 26.683-26.683s26.683 10.008 26.683 26.683v540.354l100.067-100.067c3.335-3.335 10.008-6.67 16.678-6.67s13.343 3.335 16.678 6.67c10.008 10.008 10.008 26.683 0 36.691l-143.427 143.427c-3.335 3.335-6.67 3.335-6.67 6.67-6.67 3.335-13.343 3.335-20.013 0-3.335 0-6.67-3.335-6.67-6.67l-143.427-143.427c-10.008-10.008-10.008-26.683 0-36.691s23.348-10.008 33.356 0zM295.189 57.913c3.335-3.335 6.67-3.335 6.67-6.67 3.335 0 6.67-3.335 10.008-3.335s6.67 0 10.008 3.335c3.335 0 6.67 3.335 6.67 6.67l143.427 143.427c10.008 10.008 10.008 26.683 0 36.691s-26.683 10.008-36.691 0l-100.067-100.067v537.019c0 13.343-10.008 26.683-26.683 26.683s-26.683-10.008-26.683-26.683v-540.354l-100.067 100.067c-10.008 10.008-26.683 10.008-36.691 0s-10.008-26.683 0-36.691l150.098-140.092zM928.937-28.811c-13.343 0-26.683-10.008-26.683-26.683v-210.138h-780.511v210.138c0 13.343-10.008 26.683-26.683 26.683s-26.683-10.008-26.683-26.683v-236.821c0-13.343 10.008-26.683 26.683-26.683h833.879c13.343 0 26.683 10.008 26.683 26.683v236.821c0 16.678-13.343 26.683-26.683 26.683z" />
<glyph unicode="&#xe925;" glyph-name="newsletter-nopad" d="M983.175-74.058v435.457c0 6.803-3.402 13.609-6.803 17.010s-10.207 6.803-17.010 6.803h-125.874v292.572c0 13.609-10.207 27.215-27.215 27.215h-738.233c-13.609 0-27.215-10.207-27.215-27.215v-833.489c0-91.854 74.844-163.296 163.296-163.296h598.75c0 0 3.402 0 3.402 0s3.402 0 3.402 0c64.637 0 105.463 10.207 132.677 37.422 37.422 37.422 37.422 98.657 37.422 180.306l3.402 27.215zM779.056-271.375h-571.536c-61.235 0-112.266 51.031-112.266 112.266v813.077h687.203v-925.343zM932.147-101.275c0-71.442 0-122.473-23.813-146.286-13.609-13.609-37.422-20.412-78.245-23.813v608.957h98.657v-411.641l3.402-27.215zM238.139 419.23h394.631c13.609 0 27.215 10.207 27.215 27.215s-10.207 27.215-27.215 27.215h-394.631c-13.609 0-27.215-10.207-27.215-27.215s13.609-27.215 27.215-27.215zM238.139 245.729h394.631c13.609 0 27.215 10.207 27.215 27.215s-10.207 27.215-27.215 27.215h-394.631c-13.609 0-27.215-10.207-27.215-27.215s13.609-27.215 27.215-27.215zM238.139 72.228h394.631c13.609 0 27.215 10.207 27.215 27.215s-10.207 27.215-27.215 27.215h-394.631c-13.609 0-27.215-10.207-27.215-27.215s13.609-27.215 27.215-27.215z" />
<glyph unicode="&#xe926;" glyph-name="filemanager-nopad" d="M1024.001 296.228v154.15c0 11.011-8.259 22.021-22.021 22.021h-558.797l-30.28 77.075c-2.752 8.259-11.011 13.764-19.268 13.764h-371.614c-11.011 0-22.021-8.259-22.021-22.021v-696.433c0-11.011 8.259-22.021 22.021-22.021h979.959c11.011 0 22.021 8.259 22.021 22.021v451.442c0-2.752 0-2.752 0 0zM982.71 428.358v-115.614h-478.969l-44.043 112.861h523.012zM44.040-133.193v655.142h335.828l90.839-233.98c2.752-8.259 11.011-13.764 19.268-13.764l492.733-2.752v-38.539c0 0 0-2.752 0-2.752v-363.355h-938.67z" />
</font>
</defs>
</svg>
